<?xml version="1.0" encoding="UTF-8" standalone="no"?>
<!-- Created with Inkscape (http://www.inkscape.org/) -->

<svg
   xmlns:dc="http://purl.org/dc/elements/1.1/"
   xmlns:cc="http://creativecommons.org/ns#"
   xmlns:rdf="http://www.w3.org/1999/02/22-rdf-syntax-ns#"
   xmlns:svg="http://www.w3.org/2000/svg"
   xmlns="http://www.w3.org/2000/svg"
   xmlns:xlink="http://www.w3.org/1999/xlink"
   xmlns:sodipodi="http://sodipodi.sourceforge.net/DTD/sodipodi-0.dtd"
   xmlns:inkscape="http://www.inkscape.org/namespaces/inkscape"
   width="351.42856"
   height="337.14285"
   id="svg2"
   version="1.1"
   inkscape:version="0.48.4 r9939"
   sodipodi:docname="competition_model.svg"
   inkscape:export-filename="/home/facu/t4f/presentaciones/2014.URAGPF_workshop/figure/competition_model.png"
   inkscape:export-xdpi="104.91102"
   inkscape:export-ydpi="104.91102">
  <sodipodi:namedview
     id="base"
     pagecolor="#f2f2f2"
     bordercolor="#666666"
     borderopacity="1.0"
     inkscape:pageopacity="0"
     inkscape:pageshadow="2"
     inkscape:zoom="2.0222211"
     inkscape:cx="176.40649"
     inkscape:cy="184.62385"
     inkscape:document-units="px"
     inkscape:current-layer="layer1"
     showgrid="false"
     inkscape:window-width="1280"
     inkscape:window-height="974"
     inkscape:window-x="0"
     inkscape:window-y="0"
     inkscape:window-maximized="1"
     fit-margin-top="0"
     fit-margin-left="0"
     fit-margin-right="0"
     fit-margin-bottom="0" />
  <defs
     id="defs4">
    <linearGradient
       id="linearGradient3841">
      <stop
         style="stop-color:#ffffff;stop-opacity:1;"
         offset="0"
         id="stop3843" />
      <stop
         style="stop-color:#114364;stop-opacity:0;"
         offset="1"
         id="stop3845" />
    </linearGradient>
    <marker
       inkscape:stockid="Arrow1Mend"
       orient="auto"
       refY="0.0"
       refX="0.0"
       id="Arrow1Mend"
       style="overflow:visible;">
      <path
         id="path5275"
         d="M 0.0,0.0 L 5.0,-5.0 L -12.5,0.0 L 5.0,5.0 L 0.0,0.0 z "
         style="fill-rule:evenodd;stroke:#000000;stroke-width:1.0pt;"
         transform="scale(0.4) rotate(180) translate(10,0)" />
    </marker>
    <marker
       inkscape:stockid="Arrow1Lend"
       orient="auto"
       refY="0.0"
       refX="0.0"
       id="Arrow1Lend"
       style="overflow:visible;">
      <path
         id="path5269"
         d="M 0.0,0.0 L 5.0,-5.0 L -12.5,0.0 L 5.0,5.0 L 0.0,0.0 z "
         style="fill-rule:evenodd;stroke:#000000;stroke-width:1.0pt;"
         transform="scale(0.8) rotate(180) translate(12.5,0)" />
    </marker>
    <marker
       inkscape:stockid="Arrow1Mendi"
       orient="auto"
       refY="0.0"
       refX="0.0"
       id="Arrow1Mendi"
       style="overflow:visible;">
      <path
         id="path7931"
         d="M 0.0,0.0 L 5.0,-5.0 L -12.5,0.0 L 5.0,5.0 L 0.0,0.0 z "
         style="stroke:#b2b2b2;stroke-width:1.0pt;fill:#b2b2b2;fill-rule:evenodd"
         transform="scale(0.4) rotate(180) translate(10,0)" />
    </marker>
    <marker
       inkscape:stockid="Arrow1Mend3"
       orient="auto"
       refY="0.0"
       refX="0.0"
       id="Arrow1Mend3"
       style="overflow:visible;">
      <path
         id="path8227"
         d="M 0.0,0.0 L 5.0,-5.0 L -12.5,0.0 L 5.0,5.0 L 0.0,0.0 z "
         style="stroke:#b2b2b2;stroke-width:1.0pt;fill:#b2b2b2;fill-rule:evenodd"
         transform="scale(0.4) rotate(180) translate(10,0)" />
    </marker>
    <filter
       id="filter4122"
       style="color-interpolation-filters:sRGB;"
       inkscape:label="Drop Shadow">
      <feFlood
         id="feFlood4124"
         flood-opacity="0.5"
         flood-color="rgb(0,0,0)"
         result="flood" />
      <feComposite
         id="feComposite4126"
         in2="SourceGraphic"
         in="flood"
         operator="in"
         result="composite1" />
      <feGaussianBlur
         id="feGaussianBlur4128"
         in="composite"
         stdDeviation="2"
         result="blur" />
      <feOffset
         id="feOffset4130"
         dx="4"
         dy="4"
         result="offset" />
      <feComposite
         id="feComposite4132"
         in2="offset"
         in="SourceGraphic"
         operator="over"
         result="composite2" />
    </filter>
    <filter
       id="filter5774"
       style="color-interpolation-filters:sRGB;"
       inkscape:label="Drop Shadow">
      <feFlood
         id="feFlood5776"
         flood-opacity="0.5"
         flood-color="rgb(0,0,0)"
         result="flood" />
      <feComposite
         id="feComposite5778"
         in2="SourceGraphic"
         in="flood"
         operator="in"
         result="composite1" />
      <feGaussianBlur
         id="feGaussianBlur5780"
         in="composite"
         stdDeviation="2"
         result="blur" />
      <feOffset
         id="feOffset5782"
         dx="4"
         dy="4"
         result="offset" />
      <feComposite
         id="feComposite5784"
         in2="offset"
         in="SourceGraphic"
         operator="over"
         result="composite2" />
    </filter>
    <linearGradient
       inkscape:collect="always"
       xlink:href="#linearGradient3841"
       id="linearGradient3847"
       x1="-46.35857"
       y1="217.82722"
       x2="-34.817249"
       y2="227.3475"
       gradientUnits="userSpaceOnUse" />
    <linearGradient
       inkscape:collect="always"
       xlink:href="#linearGradient3841-9"
       id="linearGradient3847-2"
       x1="-46.35857"
       y1="217.82722"
       x2="-34.817249"
       y2="227.3475"
       gradientUnits="userSpaceOnUse" />
    <linearGradient
       id="linearGradient3841-9">
      <stop
         style="stop-color:#ffffff;stop-opacity:1;"
         offset="0"
         id="stop3843-9" />
      <stop
         style="stop-color:#114364;stop-opacity:0;"
         offset="1"
         id="stop3845-5" />
    </linearGradient>
    <linearGradient
       y2="227.3475"
       x2="-34.817249"
       y1="217.82722"
       x1="-46.35857"
       gradientUnits="userSpaceOnUse"
       id="linearGradient3864"
       xlink:href="#linearGradient3841-9"
       inkscape:collect="always" />
    <linearGradient
       inkscape:collect="always"
       xlink:href="#linearGradient3841-3"
       id="linearGradient3847-7"
       x1="-46.35857"
       y1="217.82722"
       x2="-34.817249"
       y2="227.3475"
       gradientUnits="userSpaceOnUse" />
    <linearGradient
       id="linearGradient3841-3">
      <stop
         style="stop-color:#ffffff;stop-opacity:1;"
         offset="0"
         id="stop3843-1" />
      <stop
         style="stop-color:#114364;stop-opacity:0;"
         offset="1"
         id="stop3845-9" />
    </linearGradient>
    <linearGradient
       y2="227.3475"
       x2="-34.817249"
       y1="217.82722"
       x1="-46.35857"
       gradientUnits="userSpaceOnUse"
       id="linearGradient3864-2"
       xlink:href="#linearGradient3841-3"
       inkscape:collect="always" />
    <linearGradient
       inkscape:collect="always"
       xlink:href="#linearGradient3841-2"
       id="linearGradient3847-9"
       x1="-46.35857"
       y1="217.82722"
       x2="-34.817249"
       y2="227.3475"
       gradientUnits="userSpaceOnUse" />
    <linearGradient
       id="linearGradient3841-2">
      <stop
         style="stop-color:#ffffff;stop-opacity:1;"
         offset="0"
         id="stop3843-2" />
      <stop
         style="stop-color:#114364;stop-opacity:0;"
         offset="1"
         id="stop3845-1" />
    </linearGradient>
    <linearGradient
       y2="227.3475"
       x2="-34.817249"
       y1="217.82722"
       x1="-46.35857"
       gradientUnits="userSpaceOnUse"
       id="linearGradient3864-0"
       xlink:href="#linearGradient3841-2"
       inkscape:collect="always" />
    <linearGradient
       inkscape:collect="always"
       xlink:href="#linearGradient3841-30"
       id="linearGradient3847-0"
       x1="-46.35857"
       y1="217.82722"
       x2="-34.817249"
       y2="227.3475"
       gradientUnits="userSpaceOnUse" />
    <linearGradient
       id="linearGradient3841-30">
      <stop
         style="stop-color:#ffffff;stop-opacity:1;"
         offset="0"
         id="stop3843-3" />
      <stop
         style="stop-color:#114364;stop-opacity:0;"
         offset="1"
         id="stop3845-6" />
    </linearGradient>
    <linearGradient
       y2="227.3475"
       x2="-34.817249"
       y1="217.82722"
       x1="-46.35857"
       gradientUnits="userSpaceOnUse"
       id="linearGradient3864-1"
       xlink:href="#linearGradient3841-30"
       inkscape:collect="always" />
    <linearGradient
       inkscape:collect="always"
       xlink:href="#linearGradient3841-8"
       id="linearGradient3847-1"
       x1="-46.35857"
       y1="217.82722"
       x2="-34.817249"
       y2="227.3475"
       gradientUnits="userSpaceOnUse" />
    <linearGradient
       id="linearGradient3841-8">
      <stop
         style="stop-color:#ffffff;stop-opacity:1;"
         offset="0"
         id="stop3843-4" />
      <stop
         style="stop-color:#114364;stop-opacity:0;"
         offset="1"
         id="stop3845-7" />
    </linearGradient>
    <linearGradient
       y2="227.3475"
       x2="-34.817249"
       y1="217.82722"
       x1="-46.35857"
       gradientUnits="userSpaceOnUse"
       id="linearGradient3864-8"
       xlink:href="#linearGradient3841-8"
       inkscape:collect="always" />
    <linearGradient
       inkscape:collect="always"
       xlink:href="#linearGradient3841-0"
       id="linearGradient3847-3"
       x1="-46.35857"
       y1="217.82722"
       x2="-34.817249"
       y2="227.3475"
       gradientUnits="userSpaceOnUse" />
    <linearGradient
       id="linearGradient3841-0">
      <stop
         style="stop-color:#ffffff;stop-opacity:1;"
         offset="0"
         id="stop3843-6" />
      <stop
         style="stop-color:#114364;stop-opacity:0;"
         offset="1"
         id="stop3845-56" />
    </linearGradient>
    <linearGradient
       y2="227.3475"
       x2="-34.817249"
       y1="217.82722"
       x1="-46.35857"
       gradientUnits="userSpaceOnUse"
       id="linearGradient3864-02"
       xlink:href="#linearGradient3841-0"
       inkscape:collect="always" />
    <linearGradient
       id="linearGradient3841-4">
      <stop
         style="stop-color:#ffffff;stop-opacity:1;"
         offset="0"
         id="stop3843-46" />
      <stop
         style="stop-color:#114364;stop-opacity:0;"
         offset="1"
         id="stop3845-3" />
    </linearGradient>
    <linearGradient
       id="linearGradient3841-9-0">
      <stop
         style="stop-color:#ffffff;stop-opacity:1;"
         offset="0"
         id="stop3843-9-7" />
      <stop
         style="stop-color:#114364;stop-opacity:0;"
         offset="1"
         id="stop3845-5-1" />
    </linearGradient>
    <linearGradient
       id="linearGradient3841-3-9">
      <stop
         style="stop-color:#ffffff;stop-opacity:1;"
         offset="0"
         id="stop3843-1-1" />
      <stop
         style="stop-color:#114364;stop-opacity:0;"
         offset="1"
         id="stop3845-9-7" />
    </linearGradient>
    <linearGradient
       id="linearGradient3841-2-4">
      <stop
         style="stop-color:#ffffff;stop-opacity:1;"
         offset="0"
         id="stop3843-2-2" />
      <stop
         style="stop-color:#114364;stop-opacity:0;"
         offset="1"
         id="stop3845-1-1" />
    </linearGradient>
    <linearGradient
       id="linearGradient3841-30-2">
      <stop
         style="stop-color:#ffffff;stop-opacity:1;"
         offset="0"
         id="stop3843-3-5" />
      <stop
         style="stop-color:#114364;stop-opacity:0;"
         offset="1"
         id="stop3845-6-7" />
    </linearGradient>
    <linearGradient
       id="linearGradient3841-8-4">
      <stop
         style="stop-color:#ffffff;stop-opacity:1;"
         offset="0"
         id="stop3843-4-1" />
      <stop
         style="stop-color:#114364;stop-opacity:0;"
         offset="1"
         id="stop3845-7-8" />
    </linearGradient>
    <linearGradient
       y2="227.3475"
       x2="-34.817249"
       y1="217.82722"
       x1="-46.35857"
       gradientUnits="userSpaceOnUse"
       id="linearGradient3864-02-0"
       xlink:href="#linearGradient3841-0-5"
       inkscape:collect="always" />
    <linearGradient
       id="linearGradient3841-0-5">
      <stop
         style="stop-color:#ffffff;stop-opacity:1;"
         offset="0"
         id="stop3843-6-9" />
      <stop
         style="stop-color:#114364;stop-opacity:0;"
         offset="1"
         id="stop3845-56-8" />
    </linearGradient>
    <filter
       id="filter4320"
       style="color-interpolation-filters:sRGB;"
       inkscape:label="Drop Shadow">
      <feFlood
         id="feFlood4322"
         flood-opacity="0.5"
         flood-color="rgb(0,0,0)"
         result="flood" />
      <feComposite
         id="feComposite4324"
         in2="SourceGraphic"
         in="flood"
         operator="in"
         result="composite1" />
      <feGaussianBlur
         id="feGaussianBlur4326"
         in="composite"
         stdDeviation="2"
         result="blur" />
      <feOffset
         id="feOffset4328"
         dx="3.5"
         dy="3.5"
         result="offset" />
      <feComposite
         id="feComposite4330"
         in2="offset"
         in="SourceGraphic"
         operator="over"
         result="composite2" />
    </filter>
    <filter
       id="filter4332"
       style="color-interpolation-filters:sRGB;"
       inkscape:label="Drop Shadow">
      <feFlood
         id="feFlood4334"
         flood-opacity="0.5"
         flood-color="rgb(0,0,0)"
         result="flood" />
      <feComposite
         id="feComposite4336"
         in2="SourceGraphic"
         in="flood"
         operator="in"
         result="composite1" />
      <feGaussianBlur
         id="feGaussianBlur4338"
         in="composite"
         stdDeviation="2"
         result="blur" />
      <feOffset
         id="feOffset4340"
         dx="3.5"
         dy="3.5"
         result="offset" />
      <feComposite
         id="feComposite4342"
         in2="offset"
         in="SourceGraphic"
         operator="over"
         result="composite2" />
    </filter>
    <linearGradient
       inkscape:collect="always"
       xlink:href="#linearGradient3841-4"
       id="linearGradient4344"
       gradientUnits="userSpaceOnUse"
       x1="-46.35857"
       y1="217.82722"
       x2="-34.817249"
       y2="227.3475" />
    <linearGradient
       inkscape:collect="always"
       xlink:href="#linearGradient3841-9-0"
       id="linearGradient4346"
       gradientUnits="userSpaceOnUse"
       x1="-46.35857"
       y1="217.82722"
       x2="-34.817249"
       y2="227.3475" />
    <linearGradient
       inkscape:collect="always"
       xlink:href="#linearGradient3841-3-9"
       id="linearGradient4348"
       gradientUnits="userSpaceOnUse"
       x1="-46.35857"
       y1="217.82722"
       x2="-34.817249"
       y2="227.3475" />
    <linearGradient
       inkscape:collect="always"
       xlink:href="#linearGradient3841-2-4"
       id="linearGradient4350"
       gradientUnits="userSpaceOnUse"
       x1="-46.35857"
       y1="217.82722"
       x2="-34.817249"
       y2="227.3475" />
    <linearGradient
       inkscape:collect="always"
       xlink:href="#linearGradient3841-30-2"
       id="linearGradient4352"
       gradientUnits="userSpaceOnUse"
       x1="-46.35857"
       y1="217.82722"
       x2="-34.817249"
       y2="227.3475" />
    <linearGradient
       inkscape:collect="always"
       xlink:href="#linearGradient3841-8-4"
       id="linearGradient4354"
       gradientUnits="userSpaceOnUse"
       x1="-46.35857"
       y1="217.82722"
       x2="-34.817249"
       y2="227.3475" />
    <linearGradient
       inkscape:collect="always"
       xlink:href="#linearGradient3841-0-5"
       id="linearGradient4356"
       gradientUnits="userSpaceOnUse"
       x1="-46.35857"
       y1="217.82722"
       x2="-34.817249"
       y2="227.3475" />
  </defs>
  <metadata
     id="metadata7">
    <rdf:RDF>
      <cc:Work
         rdf:about="">
        <dc:format>image/svg+xml</dc:format>
        <dc:type
           rdf:resource="http://purl.org/dc/dcmitype/StillImage" />
        <dc:title></dc:title>
      </cc:Work>
    </rdf:RDF>
  </metadata>
  <g
     inkscape:label="Layer 1"
     inkscape:groupmode="layer"
     id="layer1"
     transform="translate(-160,-568.07648)">
    <path
       style="fill:#e5e5e5;fill-opacity:1;stroke-width:0.84883945999999999;stroke-miterlimit:4;stroke-dasharray:1.69767891999999998, 1.69767891999999998;stroke-dashoffset:0"
       d="M 351.4375 206.78125 L 8.46875 206.78125 C 6.1933928 206.78125 3.9552735 207.03249 1.8125 207.46875 C 1.1815079 207.59722 0.61706028 207.86739 0 208.03125 L 0 304.28125 C 0 322.48411 14.640893 337.15625 32.84375 337.15625 L 318.5625 337.15625 C 336.76536 337.15625 351.4375 322.48411 351.4375 304.28125 L 351.4375 206.78125 z "
       id="path5248"
       transform="translate(160,568.07648)" />
    <path
       style="fill:#f2f2f2;fill-opacity:1;stroke-width:0.84883945999999999;stroke-miterlimit:4;stroke-dasharray:1.69767891999999998, 1.69767891999999998;stroke-dashoffset:0"
       d="M 32.84375 0 C 14.640893 0 -2.514309e-16 14.640893 0 32.84375 L 0 208.03125 C 0.61706028 207.86739 1.1815079 207.59722 1.8125 207.46875 C 3.9552735 207.03249 6.1933928 206.78125 8.46875 206.78125 L 351.4375 206.78125 L 351.4375 32.84375 C 351.4375 14.640893 336.76536 -2.1806566e-16 318.5625 0 L 32.84375 0 z "
       id="rect4425"
       transform="translate(160,568.07648)" />
    <g
       id="g4358">
      <rect
         y="822.07233"
         x="291.32144"
         height="34.285713"
         width="15.714286"
         id="rect3854"
         style="fill:#1f78b4;fill-opacity:1" />
      <rect
         rx="0"
         ry="0"
         y="855.50922"
         x="311.67856"
         height="19.999998"
         width="15.714286"
         id="rect3854-3"
         style="fill:#a6cee3;fill-opacity:1" />
      <path
         inkscape:connector-curvature="0"
         id="path3901"
         d="m 284.75313,855.93361 c 49.92233,0 49.92233,0 49.92233,0"
         style="fill:none;stroke:#000000;stroke-width:0.84883946px;stroke-linecap:butt;stroke-linejoin:miter;stroke-opacity:1" />
    </g>
    <g
       id="g4363">
      <rect
         y="809.35809"
         x="423.62469"
         height="47.142857"
         width="15.714286"
         id="rect3854-5"
         style="fill:#33a02c;fill-opacity:1" />
      <rect
         transform="scale(1,-1)"
         rx="0"
         ry="0"
         y="-855.6521"
         x="443.98181"
         height="9.2857161"
         width="15.714286"
         id="rect3854-3-4"
         style="fill:#b2df8a;fill-opacity:1" />
      <path
         inkscape:connector-curvature="0"
         id="path3901-7"
         d="m 417.05638,856.07646 c 49.92233,0 49.92233,0 49.92233,0"
         style="fill:none;stroke:#000000;stroke-width:0.84883946px;stroke-linecap:butt;stroke-linejoin:miter;stroke-opacity:1" />
    </g>
    <rect
       y="666.36914"
       x="296.85712"
       height="85.714226"
       width="15.714478"
       id="rect3854-4"
       style="fill:#4d4d4d;fill-opacity:1" />
    <rect
       style="fill:#1f78b4;fill-opacity:1"
       id="rect3854-39"
       width="15.714286"
       height="34.285713"
       x="296.85718"
       y="632.08344" />
    <rect
       style="fill:#b2df8a;fill-opacity:1"
       id="rect3854-3-4-8"
       width="15.714286"
       height="9.2857161"
       x="314.85718"
       y="-632.08344"
       ry="0"
       rx="0"
       transform="scale(1,-1)" />
    <rect
       y="666.36914"
       x="429.16025"
       height="85.714226"
       width="15.714478"
       id="rect3854-4-4"
       style="fill:#4d4d4d;fill-opacity:1" />
    <rect
       style="fill:#33a02c;fill-opacity:1"
       id="rect3854-5-7"
       width="15.714286"
       height="47.142857"
       x="429.16034"
       y="619.22626" />
    <rect
       style="fill:#a6cee3;fill-opacity:1"
       id="rect3854-3-3"
       width="15.714286"
       height="19.999998"
       x="411.16034"
       y="619.22626"
       ry="0"
       rx="0" />
    <path
       style="fill:none;stroke:#4d4d4d;stroke-width:0.80000000000000004;stroke-linecap:butt;stroke-linejoin:miter;stroke-miterlimit:4;stroke-opacity:1;stroke-dasharray:1.60000000000000009, 1.60000000000000009;stroke-dashoffset:0"
       d="m 263.68282,623.22214 c 92.06295,0 92.06295,0 92.06295,0"
       id="path3901-1"
       inkscape:connector-curvature="0" />
    <path
       style="fill:none;stroke:#4d4d4d;stroke-width:0.80000000000000004;stroke-linecap:butt;stroke-linejoin:miter;stroke-miterlimit:4;stroke-opacity:1;stroke-dasharray:1.60000000000000009, 1.60000000000000009;stroke-dashoffset:0"
       d="m 381.98607,638.6499 c 92.06295,0 92.06295,0 92.06295,0"
       id="path3901-1-8"
       inkscape:connector-curvature="0" />
    <text
       xml:space="preserve"
       style="font-size:12px;font-style:normal;font-weight:normal;line-height:125%;letter-spacing:0px;word-spacing:0px;fill:#000000;fill-opacity:1;stroke:none;font-family:Sans"
       x="298.57144"
       y="830.93359"
       id="text4335"
       sodipodi:linespacing="125%"><tspan
         sodipodi:role="line"
         id="tspan4337"
         x="298.57144"
         y="830.93359" /></text>
    <text
       xml:space="preserve"
       style="font-size:9px;font-style:normal;font-weight:normal;line-height:125%;letter-spacing:0px;word-spacing:0px;fill:#4d4d4d;fill-opacity:1;stroke:none;font-family:Sans"
       x="338.92813"
       y="634.50513"
       id="text4381"
       sodipodi:linespacing="125%"><tspan
         sodipodi:role="line"
         x="338.92813"
         y="634.50513"
         style="font-size:8px;fill:#4d4d4d;fill-opacity:1"
         id="tspan4421">competition</tspan></text>
    <text
       xml:space="preserve"
       style="font-size:9px;font-style:normal;font-weight:normal;line-height:125%;letter-spacing:0px;word-spacing:0px;fill:#4d4d4d;fill-opacity:1;stroke:none;font-family:Sans"
       x="322.40607"
       y="655.73083"
       id="text4381-7"
       sodipodi:linespacing="125%"><tspan
         sodipodi:role="line"
         id="tspan4383-9"
         x="322.40607"
         y="655.73083"
         style="font-size:8px;fill:#4d4d4d;fill-opacity:1">direct</tspan></text>
    <text
       xml:space="preserve"
       style="font-size:9px;font-style:normal;font-weight:normal;line-height:125%;letter-spacing:0px;word-spacing:0px;fill:#4d4d4d;fill-opacity:1;stroke:none;font-family:Sans"
       x="325.97839"
       y="702.8764"
       id="text4381-8"
       sodipodi:linespacing="125%"><tspan
         sodipodi:role="line"
         id="tspan4383-94"
         x="325.97839"
         y="702.8764"
         style="font-size:8px;fill:#4d4d4d;fill-opacity:1">non-genetic</tspan><tspan
         sodipodi:role="line"
         x="325.97839"
         y="711.6264"
         style="font-size:8px;fill:#4d4d4d;fill-opacity:1"
         id="tspan4417">components</tspan></text>
    <g
       id="g3922"
       transform="translate(0,-0.78058516)">
      <text
         sodipodi:linespacing="125%"
         id="text4349"
         y="757.80084"
         x="196.42308"
         style="font-size:12px;font-style:normal;font-weight:normal;line-height:125%;letter-spacing:0px;word-spacing:0px;fill:#000000;fill-opacity:1;stroke:none;font-family:Sans"
         xml:space="preserve"><tspan
           style="font-size:8px"
           id="tspan5256"
           y="757.80084"
           x="196.42308"
           sodipodi:role="line">Phenotypes</tspan></text>
      <text
         sodipodi:linespacing="125%"
         id="text4349-2"
         y="744.1806"
         x="196.53441"
         style="font-size:12px;font-style:normal;font-weight:normal;line-height:125%;letter-spacing:0px;word-spacing:0px;fill:#000000;fill-opacity:1;stroke:none;font-family:Sans"
         xml:space="preserve"><tspan
           id="tspan5256-7"
           y="744.1806"
           x="196.53441"
           sodipodi:role="line">Observed</tspan></text>
    </g>
    <g
       id="g3928"
       transform="translate(0,-1.2778178)">
      <text
         sodipodi:linespacing="125%"
         id="text4343"
         y="809.57458"
         x="228.71996"
         style="font-size:12px;font-style:normal;font-weight:normal;text-align:center;line-height:125%;letter-spacing:0px;word-spacing:0px;text-anchor:middle;fill:#000000;fill-opacity:1;stroke:none;font-family:Sans"
         xml:space="preserve"><tspan
           style="font-size:8px"
           id="tspan5254"
           y="809.57458"
           x="228.71996"
           sodipodi:role="line">Breeding Values</tspan><tspan
           id="tspan4347"
           y="819.57458"
           x="228.71996"
           sodipodi:role="line" /></text>
      <text
         sodipodi:linespacing="125%"
         id="text4343-9"
         y="795.95435"
         x="217.32347"
         style="font-size:12px;font-style:normal;font-weight:normal;text-align:center;line-height:125%;letter-spacing:0px;word-spacing:0px;text-anchor:middle;fill:#000000;fill-opacity:1;stroke:none;font-family:Sans"
         xml:space="preserve"><tspan
           id="tspan5254-4"
           y="795.95435"
           x="217.32347"
           sodipodi:role="line">Hidden</tspan><tspan
           id="tspan4347-8"
           y="810.95435"
           x="217.32347"
           sodipodi:role="line" /></text>
    </g>
    <path
       style="fill:none;stroke:#000000;stroke-width:1px;stroke-linecap:butt;stroke-linejoin:miter;stroke-opacity:1"
       d="m 30.184049,164.12357 c 0,28.56705 0,28.56705 0,28.56705"
       id="path3900"
       inkscape:connector-curvature="0"
       transform="translate(160,568.07648)" />
    <path
       style="fill:none;stroke:#000000;stroke-width:1px;stroke-linecap:butt;stroke-linejoin:miter;stroke-opacity:1"
       d="m 189.57406,783.47656 c 0,28.56705 0,28.56705 0,28.56705"
       id="path3900-6"
       inkscape:connector-curvature="0" />
    <path
       style="fill:#114364;fill-opacity:1;filter:url(#filter4122)"
       d="m 129.76659,763.11145 c -0.13131,-0.0243 -0.42139,-0.11059 -0.64462,-0.19188 -0.36482,-0.13283 -0.40587,-0.17943 -0.40587,-0.46062 0,-0.17206 0.1275,-1.83377 0.28334,-3.69269 0.15583,-1.85892 0.32847,-3.96002 0.38364,-4.66909 0.0552,-0.70908 0.11922,-1.46445 0.14233,-1.67861 0.0648,-0.60126 -0.11751,-2.07762 -0.33839,-2.73924 -0.24458,-0.73261 -0.87028,-1.75326 -1.51919,-2.47812 l -0.48814,-0.54527 -0.418,0.31907 c -0.60592,0.46249 -1.23225,0.59157 -1.91189,0.394 -2.33945,-0.6801 -1.86261,-4.10298 0.57158,-4.10298 1.45034,0 2.48087,1.38756 2.01547,2.71372 l -0.15081,0.42975 1.08136,1.05049 c 0.59476,0.57776 1.19384,1.20089 1.3313,1.38473 l 0.24992,0.33425 0.0246,-1.52798 c 0.0337,-2.09343 0.008,-2.47841 -0.21508,-3.23212 -0.1578,-0.53293 -1.32936,-3.24672 -1.45654,-3.37391 -0.0193,-0.0193 -0.25787,0.0127 -0.53011,0.071 -0.96428,0.20679 -1.94314,-0.24021 -2.46311,-1.12479 -0.35108,-0.59729 -0.37817,-1.57886 -0.06,-2.17663 0.88719,-1.66711 3.18516,-1.69053 4.08262,-0.0416 0.46617,0.85651 0.33382,1.94815 -0.32006,2.63997 -0.10962,0.11598 -0.19931,0.25659 -0.19931,0.31246 0,0.17841 0.55376,1.33052 1.0729,2.23225 l 0.50283,0.87338 0.0716,-1.146 c 0.0884,-1.41415 0.34466,-4.21091 0.41628,-4.54263 0.0476,-0.22057 0.0127,-0.25725 -0.34883,-0.36554 -0.52674,-0.15781 -1.25149,-0.88194 -1.40708,-1.40585 -0.37439,-1.26072 0.23385,-2.54971 1.38884,-2.94325 0.85557,-0.29152 1.60253,-0.14102 2.286,0.46059 0.72507,0.63823 0.96635,1.50894 0.68156,2.45951 -0.21121,0.70493 -1.15763,1.51447 -1.77055,1.51447 -0.16754,0 -0.20618,0.0762 -0.254,0.50136 -0.1841,1.63622 -0.46855,7.73685 -0.37707,8.08669 0.0285,0.10883 0.079,0.19612 0.11223,0.19399 0.0333,-0.002 1.0489,-0.76846 2.25697,-1.70296 1.3644,-1.05543 2.18313,-1.7504 2.16126,-1.8345 -0.12964,-0.49844 -0.11745,-0.99042 0.0344,-1.38804 0.34364,-0.89981 1.06206,-1.39816 2.00629,-1.3917 0.59739,0.004 0.88769,0.11394 1.33201,0.50406 0.5028,0.44146 0.72122,0.92488 0.72122,1.59622 0,0.7448 -0.29086,1.30226 -0.89142,1.70847 -0.89752,0.60708 -1.88449,0.5095 -2.65663,-0.26265 l -0.44497,-0.44497 -1.27433,1.1535 c -0.70088,0.63442 -1.73631,1.60207 -2.30095,2.15033 -0.886,0.86031 -1.02531,1.03728 -1.01709,1.2921 0.008,0.22964 0.0234,0.2528 0.0716,0.10424 0.16561,-0.50933 0.57199,-0.81174 1.09083,-0.81174 0.93445,0 1.48177,0.83155 1.07063,1.62662 -0.18187,0.3517 -0.59495,0.56987 -1.079,0.56987 -0.44066,0 -0.83904,-0.27446 -1.02787,-0.70814 -0.11555,-0.2654 -0.12864,-0.16363 -0.132,1.02663 l -0.004,1.32123 0.44542,-0.39208 c 0.24499,-0.21564 0.75117,-0.56085 1.12485,-0.76713 0.62966,-0.34758 0.68793,-0.40683 0.79545,-0.80881 0.25366,-0.94844 1.15359,-1.5447 2.21544,-1.46789 0.76729,0.0555 1.28761,0.40963 1.65779,1.12829 0.22869,0.44398 0.26334,0.6067 0.22533,1.05829 -0.0942,1.1198 -0.81331,1.85454 -1.92748,1.96954 -0.689,0.0711 -1.44485,-0.2701 -1.8562,-0.83796 -0.16122,-0.22255 -0.29378,-0.45191 -0.29458,-0.50968 -7.7e-4,-0.0577 -0.0386,-0.1637 -0.084,-0.23539 -0.0645,-0.10186 -0.25721,-0.014 -0.88191,0.40216 -0.43964,0.29287 -0.94805,0.65695 -1.1298,0.80908 l -0.33047,0.27659 0.1694,2.52048 c 0.20445,3.04194 0.38561,4.87643 0.64503,6.53144 0.10703,0.68282 0.21774,1.39607 0.24604,1.58499 0.0496,0.33176 0.0372,0.34921 -0.36505,0.51036 -0.41378,0.16578 -1.53533,0.27063 -1.99221,0.18625 z m -9.88416,-12.11011 c -1.26592,-0.56506 -1.35204,-2.42076 -0.14388,-3.09979 1.14694,-0.64462 2.5791,0.16645 2.5791,1.46061 0,1.046 -0.72535,1.78036 -1.74907,1.77079 -0.21981,-0.002 -0.52858,-0.0613 -0.68615,-0.13161 z m 20.98019,-0.24909 c -0.43682,-0.26634 -0.644,-0.78147 -0.50324,-1.2513 0.24087,-0.80397 1.19531,-1.12125 1.81198,-0.60235 1.09095,0.91798 -0.093,2.59487 -1.30874,1.85365 z m -2.36565,-0.0901 c -0.34957,-0.14144 -0.70845,-0.65701 -0.70845,-1.0178 0,-0.68597 0.45157,-1.18166 1.07649,-1.18166 0.49903,0 0.87296,0.21428 1.05936,0.60709 0.20458,0.43112 0.1966,0.7101 -0.031,1.08338 -0.30612,0.50206 -0.88864,0.71439 -1.39639,0.50899 z m -12.32071,-0.28031 c -1.05279,-0.47812 -1.07493,-1.99427 -0.0368,-2.51589 0.9309,-0.46768 2.00408,0.20489 2.00323,1.25547 -4.8e-4,0.5832 -0.27646,1.02181 -0.78948,1.2547 -0.50309,0.22837 -0.68481,0.22925 -1.17701,0.005 z m -2.9706,-0.67381 c -0.58393,-0.35604 -0.76914,-1.11249 -0.41471,-1.69379 0.44055,-0.72251 1.34414,-0.8583 1.94106,-0.29168 1.09046,1.0351 -0.24212,2.76851 -1.52635,1.98547 z m 19.19267,-1.14639 c -0.87941,-0.3992 -1.14924,-1.56718 -0.53163,-2.30115 0.85321,-1.014 2.41234,-0.65899 2.6996,0.61468 0.15651,0.69395 -0.24596,1.45182 -0.92539,1.74252 -0.41594,0.17798 -0.76138,0.16239 -1.24258,-0.056 z m -2.76425,-0.2383 c -0.68996,-0.30012 -0.85206,-1.22146 -0.31023,-1.76329 0.24631,-0.2463 0.36783,-0.29384 0.75111,-0.29384 0.56336,0 0.91211,0.24599 1.06307,0.74982 0.14137,0.47187 -0.065,0.98636 -0.50267,1.2532 -0.36802,0.22438 -0.58309,0.23601 -1.00128,0.0541 z m -2.64734,-0.53281 c -0.39033,-0.11681 -0.80753,-0.5476 -0.93169,-0.96204 -0.28143,-0.93931 0.37595,-1.80429 1.3706,-1.80343 1.47205,0.002 1.95119,1.95831 0.64816,2.64737 -0.43464,0.22984 -0.63931,0.25208 -1.08707,0.1181 z m -3.25694,-0.0874 c -0.3571,-0.14773 -0.64132,-0.55147 -0.68798,-0.97731 -0.0616,-0.56198 0.25231,-1.03095 0.80871,-1.20828 0.3581,-0.11413 0.4397,-0.10897 0.75496,0.0477 0.48504,0.24111 0.72401,0.59659 0.71751,1.06733 -0.0116,0.83961 -0.82692,1.38746 -1.5932,1.07051 z m -12.36125,-0.1789 c -0.46528,-0.24954 -0.69607,-0.71479 -0.6448,-1.29981 0.0343,-0.3913 0.099,-0.52442 0.38018,-0.7821 0.45396,-0.41603 0.88212,-0.4887 1.43592,-0.24374 0.50931,0.22529 0.7634,0.63339 0.76414,1.22726 0.002,0.97455 -1.05193,1.57222 -1.93544,1.09839 z m -2.66174,-0.14046 c -0.69367,-0.73836 0.11132,-1.83256 1.00732,-1.36923 0.8043,0.41593 0.50556,1.58869 -0.4047,1.58869 -0.29011,0 -0.45175,-0.0588 -0.60262,-0.21946 z m -2.37961,-0.69044 c -0.3068,-0.3068 -0.33209,-0.37297 -0.28285,-0.74012 0.14899,-1.11104 1.62517,-1.27477 1.97364,-0.2189 0.21351,0.64693 -0.27906,1.29593 -0.98358,1.29593 -0.29642,0 -0.43751,-0.0672 -0.70721,-0.33691 z m 11.78432,-0.24043 c -0.96461,-0.75875 0.0608,-2.34482 1.14006,-1.76356 0.9743,0.5247 0.61721,1.9589 -0.48773,1.9589 -0.26238,0 -0.49104,-0.0685 -0.65233,-0.19534 z m 11.5855,-0.55287 c -0.37474,-0.19733 -0.66682,-0.68552 -0.66651,-1.11402 4.8e-4,-0.61349 0.60367,-1.19374 1.24099,-1.19374 0.63794,0 1.24036,0.58014 1.24113,1.19523 7.6e-4,0.63381 -0.62948,1.28775 -1.24113,1.28775 -0.13295,0 -0.39147,-0.0788 -0.57448,-0.17522 z m -20.67408,-0.25513 c -0.7846,-0.27825 -1.03503,-0.98335 -0.66897,-1.88357 0.11214,-0.27577 0.65929,-0.55106 1.09525,-0.55106 0.74562,0 1.24495,0.49618 1.24495,1.2371 0,0.5644 -0.22844,0.94228 -0.6987,1.15579 -0.47364,0.21504 -0.48275,0.21543 -0.97253,0.0417 z m 16.23485,-0.0631 c -0.29787,-0.17696 -0.42341,-0.38773 -0.42671,-0.7164 -0.005,-0.43454 0.0786,-0.59259 0.39751,-0.75751 0.80172,-0.41459 1.60051,0.57262 1.00807,1.24585 -0.25018,0.2843 -0.7056,0.3904 -0.97887,0.22806 z m 6.8387,-0.30836 c -0.12553,-0.0695 -0.28516,-0.2292 -0.35474,-0.35473 -0.52941,-0.95517 0.72668,-1.91372 1.49757,-1.14283 0.79121,0.79121 -0.16248,2.04093 -1.14283,1.49756 z m -9.84692,-0.0269 c -0.59623,-0.18654 -0.8595,-0.54161 -0.8595,-1.15922 0,-0.96117 1.17588,-1.40252 1.85317,-0.69558 0.30666,0.32008 0.41248,0.89721 0.22768,1.24175 -0.22153,0.41304 -0.8509,0.72895 -1.22135,0.61305 z m 11.99517,-0.39965 c -0.47858,-0.3254 -0.65974,-0.71312 -0.61052,-1.30659 0.0688,-0.82886 0.68325,-1.34904 1.48672,-1.25848 1.25081,0.14099 1.68576,1.5715 0.74502,2.45037 -0.34678,0.32398 -1.22233,0.38593 -1.62122,0.1147 z m -22.27729,-0.0263 c -0.38582,-0.10685 -0.7695,-0.56143 -0.85399,-1.01181 -0.13421,-0.71538 0.6145,-1.52047 1.32721,-1.42714 0.68478,0.0897 1.14452,0.56897 1.14452,1.19323 0,0.8941 -0.76376,1.48223 -1.61774,1.24572 z m 4.98684,-1.14563 c -0.65396,-0.5993 -0.50105,-1.52771 0.30754,-1.86724 0.30965,-0.13002 0.40539,-0.13239 0.73491,-0.0181 1.17517,0.40747 0.9804,2.01856 -0.26095,2.15848 -0.38816,0.0438 -0.46508,0.0169 -0.7815,-0.27311 z m 6.91049,-0.10967 c -0.37237,-0.2859 -0.48769,-0.91387 -0.23427,-1.27567 0.0767,-0.1095 0.26924,-0.25285 0.42788,-0.31856 0.88104,-0.36494 1.61974,0.6862 0.99991,1.42281 -0.20435,0.24286 -0.31616,0.2933 -0.64462,0.29079 -0.21856,-0.002 -0.46556,-0.0553 -0.5489,-0.11937 z m 6.78774,-0.28346 c -0.54227,-0.36907 -0.71527,-0.68666 -0.71527,-1.31312 0,-0.62644 0.173,-0.94404 0.71527,-1.31311 0.43554,-0.29643 1.18753,-0.29606 1.63421,7.6e-4 0.35741,0.23752 0.75424,0.928 0.75424,1.31235 0,0.38436 -0.39683,1.07483 -0.75424,1.31235 -0.44668,0.29683 -1.19867,0.29719 -1.63421,7.6e-4 z m -16.68562,-0.49971 c -0.16967,-0.0738 -0.39513,-0.27621 -0.50102,-0.44989 -0.69766,-1.14429 0.62832,-2.50386 1.72651,-1.77023 0.84515,0.5646 0.82582,1.6477 -0.0388,2.17491 -0.3569,0.21762 -0.75519,0.23279 -1.18668,0.0452 z m -4.56959,-0.0887 c -0.57684,-0.1806 -0.96731,-0.5122 -1.23451,-1.04841 -0.38175,-0.76607 -0.28151,-1.59918 0.26766,-2.22464 0.81429,-0.92743 2.28065,-0.92743 3.09494,0 0.994,1.1321 0.42068,2.9024 -1.06998,3.30387 -0.46815,0.12609 -0.56608,0.12323 -1.05811,-0.0308 z m 12.40886,-0.0554 c -0.30354,-0.12249 -0.51159,-0.47571 -0.51159,-0.86852 0,-0.80689 1.04469,-1.17846 1.56725,-0.55744 0.63401,0.75349 -0.13799,1.79629 -1.05566,1.42596 z m 11.68097,-0.57793 c -0.49195,-0.38698 -0.41414,-1.29186 0.13554,-1.57611 0.34214,-0.17693 0.59829,-0.17545 0.94819,0.005 0.34691,0.1794 0.47559,0.41195 0.47559,0.85957 0,0.75577 -0.95109,1.18947 -1.55932,0.71104 z m -9.44302,-0.37676 c -0.44266,-0.13344 -0.81149,-0.46028 -0.97195,-0.86129 -0.20412,-0.51015 -0.1944,-0.88293 0.0347,-1.33206 0.67948,-1.33189 2.59723,-1.04105 2.91043,0.44139 0.1465,0.69347 -0.39023,1.54908 -1.09934,1.75245 -0.37624,0.10791 -0.51453,0.10783 -0.87386,-4.8e-4 z m 5.39257,-0.92907 c -0.11774,-0.0221 -0.34335,-0.16938 -0.50137,-0.3274 -0.23472,-0.23472 -0.28731,-0.36638 -0.28731,-0.71926 0,-0.36391 0.0511,-0.4831 0.3247,-0.75665 0.26618,-0.26619 0.39698,-0.32469 0.72579,-0.32469 0.54688,0 1.05049,0.47841 1.05049,0.99793 0,0.75576 -0.59149,1.26511 -1.3123,1.13007 z m 1.75054,-0.79835 c -0.41456,-0.49267 -0.30736,-1.0994 0.24469,-1.38487 0.90676,-0.4689 1.73626,0.59939 1.07532,1.38487 -0.20586,0.24465 -0.31633,0.29383 -0.66001,0.29383 -0.34368,0 -0.45415,-0.0492 -0.66,-0.29383 z m -18.87106,-0.0714 c -0.381,-0.19944 -0.76336,-0.85389 -0.76093,-1.30241 7.7e-4,-0.15958 0.0975,-0.45756 0.21487,-0.66219 0.54221,-0.94576 1.8799,-0.96459 2.46367,-0.0347 0.27713,0.44145 0.22105,1.30417 -0.10764,1.65599 -0.50091,0.53616 -1.19135,0.66711 -1.80997,0.34329 z m 14.17547,-0.006 c -0.16178,-0.0987 -0.37062,-0.34051 -0.46408,-0.53747 -0.51153,-1.07798 0.63393,-2.22343 1.7119,-1.7119 0.47419,0.22502 0.71674,0.63866 0.7172,1.22307 2.8e-4,0.41287 -0.0411,0.50632 -0.37041,0.83562 -0.3293,0.3293 -0.42275,0.37072 -0.83562,0.37041 -0.28619,-2e-4 -0.5779,-0.0693 -0.75899,-0.17973 z m -20.15019,-0.38301 c -0.97504,-0.44285 -1.26219,-1.59842 -0.60484,-2.43411 0.60005,-0.76285 1.91067,-0.73966 2.49482,0.0441 0.38805,0.52068 0.39001,1.3651 0.005,1.8952 -0.21603,0.29698 -0.9275,0.67669 -1.26247,0.67379 -0.13331,-0.002 -0.41767,-0.0817 -0.63189,-0.17899 z m 15.68417,-0.47105 c -0.21359,-0.23601 -0.2042,-0.80448 0.0166,-1.00429 0.24029,-0.21745 0.73782,-0.20057 0.97134,0.0329 0.42726,0.42726 0.10712,1.14599 -0.51044,1.14599 -0.18819,0 -0.38438,-0.0718 -0.47749,-0.17465 z m 2.62906,-0.78727 c -0.54741,-0.11584 -1.06813,-0.77133 -1.06813,-1.34459 0,-0.4522 0.37568,-1.01586 0.82063,-1.23125 0.94774,-0.4588 1.94987,0.19185 1.94823,1.2649 -0.002,0.87284 -0.81333,1.49874 -1.70073,1.31093 z m 5.61968,-0.30624 c -0.12973,-0.0657 -0.33387,-0.26476 -0.45362,-0.44247 -0.54762,-0.81261 0.0251,-1.91834 0.99362,-1.91834 0.71797,0 1.16517,0.34843 1.3134,1.02331 0.0936,0.42637 -0.22192,1.11327 -0.60167,1.30964 -0.3474,0.17965 -0.92628,0.19253 -1.25173,0.0278 z m -20.90559,-0.18046 c -1.07367,-0.53145 -1.3555,-2.00397 -0.55751,-2.91284 1.18524,-1.3499 3.3154,-0.57248 3.3154,1.20999 0,1.42807 -1.47415,2.33828 -2.75789,1.70285 z m 18.179,-0.45169 c -1.22354,-0.30579 -1.64354,-1.80431 -0.76054,-2.71351 0.8614,-0.88697 2.40122,-0.48151 2.70154,0.71133 0.30459,1.20986 -0.75166,2.2994 -1.941,2.00217 z m -13.84538,-0.29498 c -0.58746,-0.38661 -0.77758,-1.12753 -0.43395,-1.69111 0.52721,-0.86464 1.61031,-0.88397 2.17491,-0.0389 0.73182,1.09548 -0.63751,2.45612 -1.74096,1.72993 z m 3.03674,-0.94664 c -0.84122,-0.52854 -0.78698,-1.81948 0.094,-2.23754 0.39081,-0.18544 0.62078,-0.19879 0.99337,-0.0576 1.27518,0.48316 1.03091,2.33105 -0.32357,2.44778 -0.34368,0.0296 -0.53445,-0.008 -0.76382,-0.15262 z m 7.65917,-0.85572 c -0.4745,-0.29309 -0.64565,-0.55371 -0.69398,-1.05673 -0.14096,-1.46703 1.80587,-1.99382 2.48959,-0.67367 0.3273,0.63198 0.0586,1.40058 -0.60866,1.74081 -0.42196,0.21516 -0.82752,0.2116 -1.18695,-0.0104 z m 5.52478,-0.40316 c -0.16537,-0.0484 -0.43396,-0.23989 -0.59687,-0.42543 -0.24188,-0.27549 -0.29614,-0.41994 -0.29585,-0.78766 6.8e-4,-0.83997 0.53095,-1.35754 1.39088,-1.35754 0.38876,0 0.49209,0.0463 0.80856,0.36285 0.47303,0.47302 0.55909,0.8979 0.30035,1.48283 -0.27097,0.61257 -0.94804,0.91799 -1.60707,0.72495 z m -15.58003,-0.53342 c -0.39906,-0.19667 -0.66066,-0.529 -0.78764,-1.0006 -0.155,-0.57563 -0.0249,-1.02775 0.4265,-1.482 0.65963,-0.6638 1.52858,-0.6817 2.16569,-0.0446 1.04037,1.04037 0.37902,2.6919 -1.0749,2.68429 -0.22842,-0.002 -0.55676,-0.0719 -0.72965,-0.1571 z m -3.65037,-0.49505 c -0.96446,-0.51252 -1.13408,-1.76871 -0.34532,-2.55746 1.06248,-1.06248 2.73429,-0.34906 2.73429,1.16681 0,1.19936 -1.31187,1.96302 -2.38897,1.39065 z m 7.61731,-0.40279 c -0.19709,-0.10405 -0.47209,-0.36106 -0.61111,-0.57112 -0.76256,-1.15231 -0.0409,-2.62935 1.34055,-2.74391 0.76479,-0.0634 1.51602,0.38604 1.77129,1.05977 0.14401,0.38008 0.12637,1.17397 -0.0328,1.47876 -0.18089,0.34625 -0.61652,0.74811 -0.94586,0.87254 -0.41888,0.15827 -1.12465,0.11373 -1.52201,-0.096 z m 8.25311,-0.19829 c -0.63338,-0.31352 -0.92331,-0.82147 -0.92331,-1.61761 0,-0.57658 0.0305,-0.68049 0.29662,-1.00971 0.42183,-0.5219 0.84355,-0.74216 1.42096,-0.74216 1.17544,0 2.05255,1.07749 1.76302,2.16578 -0.30889,1.16098 -1.50561,1.72427 -2.55729,1.2037 z m -4.53356,-0.30248 c -1.23926,-0.7502 -0.98268,-2.55529 0.41678,-2.93213 0.53231,-0.14333 1.01451,-0.0253 1.43008,0.35018 0.46252,0.41786 0.60509,0.77697 0.54728,1.37858 -0.11316,1.1777 -1.38256,1.81574 -2.39414,1.20337 z m -6.30855,-1.63814 c -0.51115,-0.18199 -0.87891,-0.56457 -1.01707,-1.05804 -0.16784,-0.59945 -0.0522,-1.06295 0.37072,-1.48586 1.04058,-1.04058 2.68647,-0.39088 2.68647,1.06046 0,1.08137 -1.04181,1.83891 -2.04012,1.48344 z m 8.56257,-1.1874 c -0.93448,-0.58712 -0.73458,-2.05367 0.32772,-2.40427 0.98731,-0.32585 1.96392,0.61814 1.6665,1.61083 -0.17154,0.57254 -0.58574,0.90401 -1.18499,0.94831 -0.38543,0.0285 -0.57518,-0.008 -0.80923,-0.15487 z m -4.33056,-0.22473 c -1.25588,-0.84634 -0.69678,-2.74528 0.80828,-2.74528 0.91967,0 1.55507,0.70391 1.46659,1.62473 -0.0239,0.24852 -0.13536,0.58096 -0.24772,0.73878 -0.42759,0.60048 -1.42411,0.78815 -2.02715,0.38177 z"
       id="path4081"
       inkscape:connector-curvature="0" />
    <path
       style="fill:#1d5c19;fill-opacity:1;filter:url(#filter5774)"
       d="m 128.2583,820.96862 c -0.13131,-0.0243 -0.42139,-0.11059 -0.64462,-0.19188 -0.36482,-0.13283 -0.40587,-0.17943 -0.40587,-0.46062 0,-0.17206 0.1275,-1.83377 0.28334,-3.69269 0.15583,-1.85892 0.32847,-3.96002 0.38364,-4.66909 0.0552,-0.70908 0.11922,-1.46445 0.14233,-1.67861 0.0648,-0.60126 -0.11751,-2.07762 -0.33839,-2.73924 -0.24458,-0.73261 -0.87028,-1.75326 -1.51919,-2.47812 l -0.48814,-0.54527 -0.418,0.31907 c -0.60592,0.46249 -1.23225,0.59157 -1.91189,0.394 -2.33945,-0.6801 -1.86261,-4.10298 0.57158,-4.10298 1.45034,0 2.48087,1.38756 2.01547,2.71372 l -0.15081,0.42975 1.08136,1.05049 c 0.59476,0.57776 1.19384,1.20089 1.3313,1.38473 l 0.24992,0.33425 0.0246,-1.52798 c 0.0337,-2.09343 0.008,-2.47841 -0.21508,-3.23212 -0.1578,-0.53293 -1.32936,-3.24672 -1.45654,-3.37391 -0.0193,-0.0193 -0.25787,0.0127 -0.53011,0.071 -0.96428,0.20679 -1.94314,-0.24021 -2.46311,-1.12479 -0.35108,-0.59729 -0.37817,-1.57886 -0.06,-2.17663 0.88719,-1.66711 3.18516,-1.69053 4.08262,-0.0416 0.46617,0.85651 0.33382,1.94815 -0.32006,2.63997 -0.10962,0.11598 -0.19931,0.25659 -0.19931,0.31246 0,0.17841 0.55376,1.33052 1.0729,2.23225 l 0.50283,0.87338 0.0716,-1.146 c 0.0884,-1.41415 0.34466,-4.21091 0.41628,-4.54263 0.0476,-0.22057 0.0127,-0.25725 -0.34883,-0.36554 -0.52674,-0.15781 -1.25149,-0.88194 -1.40708,-1.40585 -0.37439,-1.26072 0.23385,-2.54971 1.38884,-2.94325 0.85557,-0.29152 1.60253,-0.14102 2.286,0.46059 0.72507,0.63823 0.96635,1.50894 0.68156,2.45951 -0.21121,0.70493 -1.15763,1.51447 -1.77055,1.51447 -0.16754,0 -0.20618,0.0762 -0.254,0.50136 -0.1841,1.63622 -0.46855,7.73685 -0.37707,8.08669 0.0285,0.10883 0.079,0.19612 0.11223,0.19399 0.0333,-0.002 1.0489,-0.76846 2.25697,-1.70296 1.3644,-1.05543 2.18313,-1.7504 2.16126,-1.8345 -0.12964,-0.49844 -0.11745,-0.99042 0.0344,-1.38804 0.34364,-0.89981 1.06206,-1.39816 2.00629,-1.3917 0.59739,0.004 0.88769,0.11394 1.33201,0.50406 0.5028,0.44146 0.72122,0.92488 0.72122,1.59622 0,0.7448 -0.29086,1.30226 -0.89142,1.70847 -0.89752,0.60708 -1.88449,0.5095 -2.65663,-0.26265 l -0.44497,-0.44497 -1.27433,1.1535 c -0.70088,0.63442 -1.73631,1.60207 -2.30095,2.15033 -0.886,0.86031 -1.02531,1.03728 -1.01709,1.2921 0.008,0.22964 0.0234,0.2528 0.0716,0.10424 0.16561,-0.50933 0.57199,-0.81174 1.09083,-0.81174 0.93445,0 1.48177,0.83155 1.07063,1.62662 -0.18187,0.3517 -0.59495,0.56987 -1.079,0.56987 -0.44066,0 -0.83904,-0.27446 -1.02787,-0.70814 -0.11555,-0.2654 -0.12864,-0.16363 -0.132,1.02663 l -0.004,1.32123 0.44542,-0.39208 c 0.24499,-0.21564 0.75117,-0.56085 1.12485,-0.76713 0.62966,-0.34758 0.68793,-0.40683 0.79545,-0.80881 0.25366,-0.94844 1.15359,-1.5447 2.21544,-1.46789 0.76729,0.0555 1.28761,0.40963 1.65779,1.12829 0.22869,0.44398 0.26334,0.6067 0.22533,1.05829 -0.0942,1.1198 -0.81331,1.85454 -1.92748,1.96954 -0.689,0.0711 -1.44485,-0.2701 -1.8562,-0.83796 -0.16122,-0.22255 -0.29378,-0.45191 -0.29458,-0.50968 -7.7e-4,-0.0577 -0.0386,-0.1637 -0.084,-0.23539 -0.0645,-0.10186 -0.25721,-0.014 -0.88191,0.40216 -0.43964,0.29287 -0.94805,0.65695 -1.1298,0.80908 l -0.33047,0.27659 0.1694,2.52048 c 0.20445,3.04194 0.38561,4.87643 0.64503,6.53144 0.10703,0.68282 0.21774,1.39607 0.24604,1.58499 0.0496,0.33176 0.0372,0.34921 -0.36505,0.51036 -0.41378,0.16578 -1.53533,0.27063 -1.99221,0.18625 z m -9.88416,-12.11011 c -1.26592,-0.56506 -1.35204,-2.42076 -0.14388,-3.09979 1.14694,-0.64462 2.5791,0.16645 2.5791,1.46061 0,1.046 -0.72535,1.78036 -1.74907,1.77079 -0.21981,-0.002 -0.52858,-0.0613 -0.68615,-0.13161 z m 20.98019,-0.24909 c -0.43682,-0.26634 -0.644,-0.78147 -0.50324,-1.2513 0.24087,-0.80397 1.19531,-1.12125 1.81198,-0.60235 1.09095,0.91798 -0.093,2.59487 -1.30874,1.85365 z m -2.36565,-0.0901 c -0.34957,-0.14144 -0.70845,-0.65701 -0.70845,-1.0178 0,-0.68597 0.45157,-1.18166 1.07649,-1.18166 0.49903,0 0.87296,0.21428 1.05936,0.60709 0.20458,0.43112 0.1966,0.7101 -0.031,1.08338 -0.30612,0.50206 -0.88864,0.71439 -1.39639,0.50899 z m -12.32071,-0.28031 c -1.05279,-0.47812 -1.07493,-1.99427 -0.0368,-2.51589 0.9309,-0.46768 2.00408,0.20489 2.00323,1.25547 -4.8e-4,0.5832 -0.27646,1.02181 -0.78948,1.2547 -0.50309,0.22837 -0.68481,0.22925 -1.17701,0.005 z m -2.9706,-0.67381 c -0.58393,-0.35604 -0.76914,-1.11249 -0.41471,-1.69379 0.44055,-0.72251 1.34414,-0.8583 1.94106,-0.29168 1.09046,1.0351 -0.24212,2.76851 -1.52635,1.98547 z m 19.19267,-1.14639 c -0.87941,-0.3992 -1.14924,-1.56718 -0.53163,-2.30115 0.85321,-1.014 2.41234,-0.65899 2.6996,0.61468 0.15651,0.69395 -0.24596,1.45182 -0.92539,1.74252 -0.41594,0.17798 -0.76138,0.16239 -1.24258,-0.056 z m -2.76425,-0.2383 c -0.68996,-0.30012 -0.85206,-1.22146 -0.31023,-1.76329 0.24631,-0.2463 0.36783,-0.29384 0.75111,-0.29384 0.56336,0 0.91211,0.24599 1.06307,0.74982 0.14137,0.47187 -0.065,0.98636 -0.50267,1.2532 -0.36802,0.22438 -0.58309,0.23601 -1.00128,0.0541 z m -2.64734,-0.53281 c -0.39033,-0.11681 -0.80753,-0.5476 -0.93169,-0.96204 -0.28143,-0.93931 0.37595,-1.80429 1.3706,-1.80343 1.47205,0.002 1.95119,1.95831 0.64816,2.64737 -0.43464,0.22984 -0.63931,0.25208 -1.08707,0.1181 z m -3.25694,-0.0874 c -0.3571,-0.14773 -0.64132,-0.55147 -0.68798,-0.97731 -0.0616,-0.56198 0.25231,-1.03095 0.80871,-1.20828 0.3581,-0.11413 0.4397,-0.10897 0.75496,0.0477 0.48504,0.24111 0.72401,0.59659 0.71751,1.06733 -0.0116,0.83961 -0.82692,1.38746 -1.5932,1.07051 z m -12.36125,-0.1789 c -0.46528,-0.24954 -0.69607,-0.71479 -0.6448,-1.29981 0.0343,-0.3913 0.099,-0.52442 0.38018,-0.7821 0.45396,-0.41603 0.88212,-0.4887 1.43592,-0.24374 0.50931,0.22529 0.7634,0.63339 0.76414,1.22726 0.002,0.97455 -1.05193,1.57222 -1.93544,1.09839 z m -2.66174,-0.14046 c -0.69367,-0.73836 0.11132,-1.83256 1.00732,-1.36923 0.8043,0.41593 0.50556,1.58869 -0.4047,1.58869 -0.29011,0 -0.45175,-0.0588 -0.60262,-0.21946 z m -2.37961,-0.69044 c -0.3068,-0.3068 -0.33209,-0.37297 -0.28285,-0.74012 0.14899,-1.11104 1.62517,-1.27477 1.97364,-0.2189 0.21351,0.64693 -0.27906,1.29593 -0.98358,1.29593 -0.29642,0 -0.43751,-0.0672 -0.70721,-0.33691 z m 11.78432,-0.24043 c -0.96461,-0.75875 0.0608,-2.34482 1.14006,-1.76356 0.9743,0.5247 0.61721,1.9589 -0.48773,1.9589 -0.26238,0 -0.49104,-0.0685 -0.65233,-0.19534 z m 11.5855,-0.55287 c -0.37474,-0.19733 -0.66682,-0.68552 -0.66651,-1.11402 4.8e-4,-0.61349 0.60367,-1.19374 1.24099,-1.19374 0.63794,0 1.24036,0.58014 1.24113,1.19523 7.6e-4,0.63381 -0.62948,1.28775 -1.24113,1.28775 -0.13295,0 -0.39147,-0.0788 -0.57448,-0.17522 z m -20.67408,-0.25513 c -0.7846,-0.27825 -1.03503,-0.98335 -0.66897,-1.88357 0.11214,-0.27577 0.65929,-0.55106 1.09525,-0.55106 0.74562,0 1.24495,0.49618 1.24495,1.2371 0,0.5644 -0.22844,0.94228 -0.6987,1.15579 -0.47364,0.21504 -0.48275,0.21543 -0.97253,0.0417 z m 16.23485,-0.0631 c -0.29787,-0.17696 -0.42341,-0.38773 -0.42671,-0.7164 -0.005,-0.43454 0.0786,-0.59259 0.39751,-0.75751 0.80172,-0.41459 1.60051,0.57262 1.00807,1.24585 -0.25018,0.2843 -0.7056,0.3904 -0.97887,0.22806 z m 6.8387,-0.30836 c -0.12553,-0.0695 -0.28516,-0.2292 -0.35474,-0.35473 -0.52941,-0.95517 0.72668,-1.91372 1.49757,-1.14283 0.79121,0.79121 -0.16248,2.04093 -1.14283,1.49756 z m -9.84692,-0.0269 c -0.59623,-0.18654 -0.8595,-0.54161 -0.8595,-1.15922 0,-0.96117 1.17588,-1.40252 1.85317,-0.69558 0.30666,0.32008 0.41248,0.89721 0.22768,1.24175 -0.22153,0.41304 -0.8509,0.72895 -1.22135,0.61305 z m 11.99517,-0.39965 c -0.47858,-0.3254 -0.65974,-0.71312 -0.61052,-1.30659 0.0688,-0.82886 0.68325,-1.34904 1.48672,-1.25848 1.25081,0.14099 1.68576,1.5715 0.74502,2.45037 -0.34678,0.32398 -1.22233,0.38593 -1.62122,0.1147 z m -22.27729,-0.0263 c -0.38582,-0.10685 -0.7695,-0.56143 -0.85399,-1.01181 -0.13421,-0.71538 0.6145,-1.52047 1.32721,-1.42714 0.68478,0.0897 1.14452,0.56897 1.14452,1.19323 0,0.8941 -0.76376,1.48223 -1.61774,1.24572 z m 4.98684,-1.14563 c -0.65396,-0.5993 -0.50105,-1.52771 0.30754,-1.86724 0.30965,-0.13002 0.40539,-0.13239 0.73491,-0.0181 1.17517,0.40747 0.9804,2.01856 -0.26095,2.15848 -0.38816,0.0438 -0.46508,0.0169 -0.7815,-0.27311 z m 6.91049,-0.10967 c -0.37237,-0.2859 -0.48769,-0.91387 -0.23427,-1.27567 0.0767,-0.1095 0.26924,-0.25285 0.42788,-0.31856 0.88104,-0.36494 1.61974,0.6862 0.99991,1.42281 -0.20435,0.24286 -0.31616,0.2933 -0.64462,0.29079 -0.21856,-0.002 -0.46556,-0.0553 -0.5489,-0.11937 z m 6.78774,-0.28346 c -0.54227,-0.36907 -0.71527,-0.68666 -0.71527,-1.31312 0,-0.62644 0.173,-0.94404 0.71527,-1.31311 0.43554,-0.29643 1.18753,-0.29606 1.63421,7.6e-4 0.35741,0.23752 0.75424,0.928 0.75424,1.31235 0,0.38436 -0.39683,1.07483 -0.75424,1.31235 -0.44668,0.29683 -1.19867,0.29719 -1.63421,7.6e-4 z m -16.68562,-0.49971 c -0.16967,-0.0738 -0.39513,-0.27621 -0.50102,-0.44989 -0.69766,-1.14429 0.62832,-2.50386 1.72651,-1.77023 0.84515,0.5646 0.82582,1.6477 -0.0388,2.17491 -0.3569,0.21762 -0.75519,0.23279 -1.18668,0.0452 z m -4.56959,-0.0887 c -0.57684,-0.1806 -0.96731,-0.5122 -1.23451,-1.04841 -0.38175,-0.76607 -0.28151,-1.59918 0.26766,-2.22464 0.81429,-0.92743 2.28065,-0.92743 3.09494,0 0.994,1.1321 0.42068,2.9024 -1.06998,3.30387 -0.46815,0.12609 -0.56608,0.12323 -1.05811,-0.0308 z m 12.40886,-0.0554 c -0.30354,-0.12249 -0.51159,-0.47571 -0.51159,-0.86852 0,-0.80689 1.04469,-1.17846 1.56725,-0.55744 0.63401,0.75349 -0.13799,1.79629 -1.05566,1.42596 z m 11.68097,-0.57793 c -0.49195,-0.38698 -0.41414,-1.29186 0.13554,-1.57611 0.34214,-0.17693 0.59829,-0.17545 0.94819,0.005 0.34691,0.1794 0.47559,0.41195 0.47559,0.85957 0,0.75577 -0.95109,1.18947 -1.55932,0.71104 z m -9.44302,-0.37676 c -0.44266,-0.13344 -0.81149,-0.46028 -0.97195,-0.86129 -0.20412,-0.51015 -0.1944,-0.88293 0.0347,-1.33206 0.67948,-1.33189 2.59723,-1.04105 2.91043,0.44139 0.1465,0.69347 -0.39023,1.54908 -1.09934,1.75245 -0.37624,0.10791 -0.51453,0.10783 -0.87386,-4.8e-4 z m 5.39257,-0.92907 c -0.11774,-0.0221 -0.34335,-0.16938 -0.50137,-0.3274 -0.23472,-0.23472 -0.28731,-0.36638 -0.28731,-0.71926 0,-0.36391 0.0511,-0.4831 0.3247,-0.75665 0.26618,-0.26619 0.39698,-0.32469 0.72579,-0.32469 0.54688,0 1.05049,0.47841 1.05049,0.99793 0,0.75576 -0.59149,1.26511 -1.3123,1.13007 z m 1.75054,-0.79835 c -0.41456,-0.49267 -0.30736,-1.0994 0.24469,-1.38487 0.90676,-0.4689 1.73626,0.59939 1.07532,1.38487 -0.20586,0.24465 -0.31633,0.29383 -0.66001,0.29383 -0.34368,0 -0.45415,-0.0492 -0.66,-0.29383 z m -18.87106,-0.0714 c -0.381,-0.19944 -0.76336,-0.85389 -0.76093,-1.30241 7.7e-4,-0.15958 0.0975,-0.45756 0.21487,-0.66219 0.54221,-0.94576 1.8799,-0.96459 2.46367,-0.0347 0.27713,0.44145 0.22105,1.30417 -0.10764,1.65599 -0.50091,0.53616 -1.19135,0.66711 -1.80997,0.34329 z m 14.17547,-0.006 c -0.16178,-0.0987 -0.37062,-0.34051 -0.46408,-0.53747 -0.51153,-1.07798 0.63393,-2.22343 1.7119,-1.7119 0.47419,0.22502 0.71674,0.63866 0.7172,1.22307 2.8e-4,0.41287 -0.0411,0.50632 -0.37041,0.83562 -0.3293,0.3293 -0.42275,0.37072 -0.83562,0.37041 -0.28619,-2e-4 -0.5779,-0.0693 -0.75899,-0.17973 z m -20.15019,-0.38301 c -0.97504,-0.44285 -1.26219,-1.59842 -0.60484,-2.43411 0.60005,-0.76285 1.91067,-0.73966 2.49482,0.0441 0.38805,0.52068 0.39001,1.3651 0.005,1.8952 -0.21603,0.29698 -0.9275,0.67669 -1.26247,0.67379 -0.13331,-0.002 -0.41767,-0.0817 -0.63189,-0.17899 z m 15.68417,-0.47105 c -0.21359,-0.23601 -0.2042,-0.80448 0.0166,-1.00429 0.24029,-0.21745 0.73782,-0.20057 0.97134,0.0329 0.42726,0.42726 0.10712,1.14599 -0.51044,1.14599 -0.18819,0 -0.38438,-0.0718 -0.47749,-0.17465 z m 2.62906,-0.78727 c -0.54741,-0.11584 -1.06813,-0.77133 -1.06813,-1.34459 0,-0.4522 0.37568,-1.01586 0.82063,-1.23125 0.94774,-0.4588 1.94987,0.19185 1.94823,1.2649 -0.002,0.87284 -0.81333,1.49874 -1.70073,1.31093 z m 5.61968,-0.30624 c -0.12973,-0.0657 -0.33387,-0.26476 -0.45362,-0.44247 -0.54762,-0.81261 0.0251,-1.91834 0.99362,-1.91834 0.71797,0 1.16517,0.34843 1.3134,1.02331 0.0936,0.42637 -0.22192,1.11327 -0.60167,1.30964 -0.3474,0.17965 -0.92628,0.19253 -1.25173,0.0278 z m -20.90559,-0.18046 c -1.07367,-0.53145 -1.3555,-2.00397 -0.55751,-2.91284 1.18524,-1.3499 3.3154,-0.57248 3.3154,1.20999 0,1.42807 -1.47415,2.33828 -2.75789,1.70285 z m 18.179,-0.45169 c -1.22354,-0.30579 -1.64354,-1.80431 -0.76054,-2.71351 0.8614,-0.88697 2.40122,-0.48151 2.70154,0.71133 0.30459,1.20986 -0.75166,2.2994 -1.941,2.00217 z m -13.84538,-0.29498 c -0.58746,-0.38661 -0.77758,-1.12753 -0.43395,-1.69111 0.52721,-0.86464 1.61031,-0.88397 2.17491,-0.0389 0.73182,1.09548 -0.63751,2.45612 -1.74096,1.72993 z m 3.03674,-0.94664 c -0.84122,-0.52854 -0.78698,-1.81948 0.094,-2.23754 0.39081,-0.18544 0.62078,-0.19879 0.99337,-0.0576 1.27518,0.48316 1.03091,2.33105 -0.32357,2.44778 -0.34368,0.0296 -0.53445,-0.008 -0.76382,-0.15262 z m 7.65917,-0.85572 c -0.4745,-0.29309 -0.64565,-0.55371 -0.69398,-1.05673 -0.14096,-1.46703 1.80587,-1.99382 2.48959,-0.67367 0.3273,0.63198 0.0586,1.40058 -0.60866,1.74081 -0.42196,0.21516 -0.82752,0.2116 -1.18695,-0.0104 z m 5.52478,-0.40316 c -0.16537,-0.0484 -0.43396,-0.23989 -0.59687,-0.42543 -0.24188,-0.27549 -0.29614,-0.41994 -0.29585,-0.78766 6.8e-4,-0.83997 0.53095,-1.35754 1.39088,-1.35754 0.38876,0 0.49209,0.0463 0.80856,0.36285 0.47303,0.47302 0.55909,0.8979 0.30035,1.48283 -0.27097,0.61257 -0.94804,0.91799 -1.60707,0.72495 z m -15.58003,-0.53342 c -0.39906,-0.19667 -0.66066,-0.529 -0.78764,-1.0006 -0.155,-0.57563 -0.0249,-1.02775 0.4265,-1.482 0.65963,-0.6638 1.52858,-0.6817 2.16569,-0.0446 1.04037,1.04037 0.37902,2.6919 -1.0749,2.68429 -0.22842,-0.002 -0.55676,-0.0719 -0.72965,-0.1571 z m -3.65037,-0.49505 c -0.96446,-0.51252 -1.13408,-1.76871 -0.34532,-2.55746 1.06248,-1.06248 2.73429,-0.34906 2.73429,1.16681 0,1.19936 -1.31187,1.96302 -2.38897,1.39065 z m 7.61731,-0.40279 c -0.19709,-0.10405 -0.47209,-0.36106 -0.61111,-0.57112 -0.76256,-1.15231 -0.0409,-2.62935 1.34055,-2.74391 0.76479,-0.0634 1.51602,0.38604 1.77129,1.05977 0.14401,0.38008 0.12637,1.17397 -0.0328,1.47876 -0.18089,0.34625 -0.61652,0.74811 -0.94586,0.87254 -0.41888,0.15827 -1.12465,0.11373 -1.52201,-0.096 z m 8.25311,-0.19829 c -0.63338,-0.31352 -0.92331,-0.82147 -0.92331,-1.61761 0,-0.57658 0.0305,-0.68049 0.29662,-1.00971 0.42183,-0.5219 0.84355,-0.74216 1.42096,-0.74216 1.17544,0 2.05255,1.07749 1.76302,2.16578 -0.30889,1.16098 -1.50561,1.72427 -2.55729,1.2037 z m -4.53356,-0.30248 c -1.23926,-0.7502 -0.98268,-2.55529 0.41678,-2.93213 0.53231,-0.14333 1.01451,-0.0253 1.43008,0.35018 0.46252,0.41786 0.60509,0.77697 0.54728,1.37858 -0.11316,1.1777 -1.38256,1.81574 -2.39414,1.20337 z m -6.30855,-1.63814 c -0.51115,-0.18199 -0.87891,-0.56457 -1.01707,-1.05804 -0.16784,-0.59945 -0.0522,-1.06295 0.37072,-1.48586 1.04058,-1.04058 2.68647,-0.39088 2.68647,1.06046 0,1.08137 -1.04181,1.83891 -2.04012,1.48344 z m 8.56257,-1.1874 c -0.93448,-0.58712 -0.73458,-2.05367 0.32772,-2.40427 0.98731,-0.32585 1.96392,0.61814 1.6665,1.61083 -0.17154,0.57254 -0.58574,0.90401 -1.18499,0.94831 -0.38543,0.0285 -0.57518,-0.008 -0.80923,-0.15487 z m -4.33056,-0.22473 c -1.25588,-0.84634 -0.69678,-2.74528 0.80828,-2.74528 0.91967,0 1.55507,0.70391 1.46659,1.62473 -0.0239,0.24852 -0.13536,0.58096 -0.24772,0.73878 -0.42759,0.60048 -1.42411,0.78815 -2.02715,0.38177 z"
       id="path4081-3"
       inkscape:connector-curvature="0" />
    <path
       sodipodi:type="arc"
       style="fill:none;stroke:#c5c5c5;stroke-width:0.21468477;stroke-miterlimit:1;stroke-opacity:1;stroke-dasharray:none"
       id="path5794"
       sodipodi:cx="279.75858"
       sodipodi:cy="139.99455"
       sodipodi:rx="4.2421489"
       sodipodi:ry="3.7956071"
       d="m 284.00072,139.99455 c 0,2.09626 -1.89927,3.79561 -4.24214,3.79561 -2.34288,0 -4.24215,-1.69935 -4.24215,-3.79561 0,-2.09625 1.89927,-3.7956 4.24215,-3.7956 2.34287,0 4.24214,1.69935 4.24214,3.7956 z"
       transform="matrix(3.6810533,0,0,1.7023535,-724.28071,465.33259)" />
    <path
       sodipodi:type="arc"
       style="fill:none;stroke:#c5c5c5;stroke-width:0.21468477;stroke-miterlimit:1;stroke-opacity:1;stroke-dasharray:none"
       id="path5794-8"
       sodipodi:cx="279.75858"
       sodipodi:cy="139.99455"
       sodipodi:rx="4.2421489"
       sodipodi:ry="3.7956071"
       d="m 284.00072,139.99455 c 0,2.09626 -1.89927,3.79561 -4.24214,3.79561 -2.34288,0 -4.24215,-1.69935 -4.24215,-3.79561 0,-2.09625 1.89927,-3.7956 4.24215,-3.7956 2.34287,0 4.24214,1.69935 4.24214,3.7956 z"
       transform="matrix(2.5413633,0,0,1.2521118,-386.64073,455.30716)" />
    <path
       sodipodi:type="arc"
       style="fill:none;stroke:#c5c5c5;stroke-width:0.21468477;stroke-miterlimit:1;stroke-opacity:1;stroke-dasharray:none"
       id="path5794-6"
       sodipodi:cx="279.75858"
       sodipodi:cy="139.99455"
       sodipodi:rx="4.2421489"
       sodipodi:ry="3.7956071"
       d="m 284.00072,139.99455 c 0,2.09626 -1.89927,3.79561 -4.24214,3.79561 -2.34288,0 -4.24215,-1.69935 -4.24215,-3.79561 0,-2.09625 1.89927,-3.7956 4.24215,-3.7956 2.34287,0 4.24214,1.69935 4.24214,3.7956 z"
       transform="matrix(2.8001901,0,0,1.3649182,-478.92086,461.84198)" />
    <g
       id="g3968"
       style="filter:url(#filter4332)"
       transform="matrix(0.84125172,0,0,0.84125172,215.65501,109.86054)">
      <path
         inkscape:connector-curvature="0"
         id="path6308"
         d="m 125.58048,773.80637 c -1.08407,0.0462 -2.14,0.47582 -2.81908,1.27557 -1.22469,1.44231 -1.25882,3.61091 -0.0815,5.1955 0.51951,0.69924 0.46296,0.9455 -0.51838,2.12013 -0.48069,0.57538 -0.53009,0.59229 -0.85621,0.30288 -2.14465,-1.90326 -6.11575,-2.18402 -8.85331,-0.62905 -1.88152,1.06872 -3.47697,3.30894 -3.87332,5.44012 -0.0922,0.49592 -0.10298,1.5517 -0.0233,2.3473 0.27546,2.75077 1.87232,5.06725 4.33346,6.27886 0.68173,0.33563 1.29654,0.74575 1.36294,0.91445 0.16088,0.4087 0.35774,3.75684 0.22134,3.75684 -0.0588,0 -0.35568,-0.44034 -0.664,-0.97852 -0.75181,-1.31231 -2.57803,-3.10079 -4.44995,-4.3626 -1.97782,-1.33318 -2.73107,-2.18421 -3.63452,-4.11213 -0.77532,-1.65447 -0.79236,-2.00866 -0.10484,-2.27157 0.78941,-0.30187 1.14399,-0.89872 1.22898,-2.07354 0.0764,-1.05703 0.05,-1.13237 -0.55334,-1.73571 -0.86437,-0.86438 -1.88662,-1.03618 -2.94722,-0.49509 -1.86092,0.94936 -1.67805,3.44592 0.32035,4.37423 0.70874,0.32923 0.82381,0.47445 1.08919,1.39789 0.16288,0.56678 0.53293,1.4797 0.82709,2.02695 0.29416,0.54726 0.43772,0.95738 0.31452,0.90863 -0.12319,-0.0488 -1.20222,-0.48267 -2.39389,-0.96105 l -2.16673,-0.86786 -0.0815,-1.43866 c -0.0478,-0.80542 -0.22172,-1.67803 -0.39025,-1.99199 -2.299856,-4.28455 -8.692056,-2.77839 -8.701866,2.05024 -0.005,2.63648 1.9222,4.56644 4.56062,4.56644 1.64771,0 2.90853,-0.674 3.838376,-2.05024 l 0.48344,-0.71643 1.10084,0.48927 c 1.70489,0.75327 4.90063,2.4283 6.04005,3.16855 2.58584,1.67997 4.14527,3.42306 5.40518,6.02842 0.70652,1.461 0.74554,1.63484 0.74554,3.27921 l 0,1.73571 -1.03677,-0.84455 c -0.57012,-0.46438 -1.61854,-1.13872 -2.32982,-1.49692 l -1.29304,-0.65235 0,-0.90862 c 0,-2.82235 -2.32611,-5.29909 -5.23045,-5.56244 -4.835856,-0.43851 -8.003326,4.99243 -5.242086,8.98727 2.501566,3.61918 8.052526,3.17653 9.866776,-0.78631 0.24668,-0.53882 0.54871,-0.97852 0.67565,-0.97852 0.50463,0 2.68319,1.66577 3.50055,2.67929 0.98181,1.21745 1.27558,2.12918 1.27558,3.94321 0,1.65063 -0.63801,4.70227 -1.31635,6.29635 -0.30161,0.70877 -0.54751,1.40046 -0.54751,1.54349 0,0.20976 0.49377,0.26212 2.53951,0.26212 l 2.53367,0 -0.11066,-0.43685 c -0.0604,-0.24059 -0.3373,-1.68741 -0.6174,-3.21515 -0.44857,-2.44657 -0.50311,-3.17135 -0.46597,-6.075 0.0341,-2.66876 0.11017,-3.52155 0.40772,-4.4849 0.91297,-2.95587 3.71411,-5.72259 7.23991,-7.14673 1.83498,-0.74118 1.90487,-0.71969 1.9687,0.54751 0.0485,0.963 0.1298,1.16075 0.72224,1.7532 0.56453,0.56452 0.82586,0.68073 1.67747,0.75135 1.80845,0.14999 2.92845,-0.85854 2.92975,-2.63269 9.3e-4,-1.13196 -0.44284,-1.91299 -1.34547,-2.37642 -1.18304,-0.60737 -2.45407,-0.40106 -3.31417,0.5417 -0.32422,0.35538 -0.68618,0.53131 -1.18821,0.5708 -0.39682,0.0312 -1.05724,0.1755 -1.46778,0.32034 -0.41054,0.14486 -0.78842,0.26212 -0.84456,0.26212 -0.0562,0 0.52338,-0.65002 1.29305,-1.44449 0.76967,-0.79447 1.63331,-1.84289 1.91628,-2.32982 0.54437,-0.93675 0.64952,-1.01047 0.98434,-0.67565 0.24988,0.24987 1.6836,0.0732 2.11431,-0.26211 0.91226,-0.7102 1.18925,-2.0612 0.6407,-3.12196 -0.66646,-1.28882 -2.68655,-1.48726 -3.69276,-0.36112 -0.49421,0.55312 -0.53394,0.69801 -0.46014,1.71825 0.0571,0.78985 0.17322,1.16251 0.39607,1.28722 0.25621,0.14338 0.27224,0.25296 0.099,0.57664 -0.41405,0.77366 -3.64535,3.94546 -6.03423,5.92355 -2.73133,2.26164 -3.12255,2.65314 -4.07719,4.09467 l -0.67564,1.01928 0,-3.36075 c 0,-2.36618 0.0639,-3.4305 0.22133,-3.58792 0.12301,-0.12302 0.64722,-0.22128 1.16491,-0.22134 1.65798,-1.6e-4 3.84324,-1.07138 5.09648,-2.49874 2.26083,-2.57495 2.71429,-5.92426 1.21733,-8.98144 -0.26776,-0.54684 -0.643,-1.16492 -0.83291,-1.36877 -0.47028,-0.5048 -0.44601,-0.6335 0.332,-1.80561 0.50635,-0.76286 0.75337,-0.98923 0.97852,-0.89116 1.4691,0.63993 2.95538,0.47747 4.25775,-0.46596 1.89988,-1.37627 2.05606,-4.43021 0.3087,-6.0517 -0.79419,-0.73698 -1.90976,-1.07131 -2.99382,-1.02512 z"
         style="fill:#114364;fill-opacity:1" />
      <path
         transform="matrix(1.0680852,0,0,1.0680852,159.83635,550.98845)"
         d="m -33.137198,222.86737 c 0,4.14584 -3.360869,7.50671 -7.506711,7.50671 -4.145843,0 -7.506712,-3.36087 -7.506712,-7.50671 0,-4.14584 3.360869,-7.50671 7.506712,-7.50671 4.145842,0 7.506711,3.36087 7.506711,7.50671 z"
         sodipodi:ry="7.5067115"
         sodipodi:rx="7.5067115"
         sodipodi:cy="222.86737"
         sodipodi:cx="-40.643909"
         id="path3047"
         style="fill:url(#linearGradient3847);fill-opacity:1;stroke:none"
         sodipodi:type="arc" />
      <path
         transform="matrix(0.54218878,0,0,0.54218878,147.70318,656.85878)"
         d="m -33.137198,222.86737 c 0,4.14584 -3.360869,7.50671 -7.506711,7.50671 -4.145843,0 -7.506712,-3.36087 -7.506712,-7.50671 0,-4.14584 3.360869,-7.50671 7.506712,-7.50671 4.145842,0 7.506711,3.36087 7.506711,7.50671 z"
         sodipodi:ry="7.5067115"
         sodipodi:rx="7.5067115"
         sodipodi:cy="222.86737"
         sodipodi:cx="-40.643909"
         id="path3047-2"
         style="fill:url(#linearGradient3864);fill-opacity:1;stroke:none"
         sodipodi:type="arc" />
      <path
         transform="matrix(0.61780832,0,0,0.61780832,121.85649,652.5967)"
         d="m -33.137198,222.86737 c 0,4.14584 -3.360869,7.50671 -7.506711,7.50671 -4.145843,0 -7.506712,-3.36087 -7.506712,-7.50671 0,-4.14584 3.360869,-7.50671 7.506712,-7.50671 4.145842,0 7.506711,3.36087 7.506711,7.50671 z"
         sodipodi:ry="7.5067115"
         sodipodi:rx="7.5067115"
         sodipodi:cy="222.86737"
         sodipodi:cx="-40.643909"
         id="path3047-1"
         style="fill:url(#linearGradient3864-2);fill-opacity:1;stroke:none"
         sodipodi:type="arc" />
      <path
         transform="matrix(0.32415984,0,0,0.32415984,117.63103,714.62074)"
         d="m -33.137198,222.86737 c 0,4.14584 -3.360869,7.50671 -7.506711,7.50671 -4.145843,0 -7.506712,-3.36087 -7.506712,-7.50671 0,-4.14584 3.360869,-7.50671 7.506712,-7.50671 4.145842,0 7.506711,3.36087 7.506711,7.50671 z"
         sodipodi:ry="7.5067115"
         sodipodi:rx="7.5067115"
         sodipodi:cy="222.86737"
         sodipodi:cx="-40.643909"
         id="path3047-9"
         style="fill:url(#linearGradient3864-0);fill-opacity:1;stroke:none"
         sodipodi:type="arc" />
      <path
         transform="matrix(0.7681153,0,0,0.7681153,135.1647,631.8604)"
         d="m -33.137198,222.86737 c 0,4.14584 -3.360869,7.50671 -7.506711,7.50671 -4.145843,0 -7.506712,-3.36087 -7.506712,-7.50671 0,-4.14584 3.360869,-7.50671 7.506712,-7.50671 4.145842,0 7.506711,3.36087 7.506711,7.50671 z"
         sodipodi:ry="7.5067115"
         sodipodi:rx="7.5067115"
         sodipodi:cy="222.86737"
         sodipodi:cx="-40.643909"
         id="path3047-0"
         style="fill:url(#linearGradient3864-1);fill-opacity:1;stroke:none"
         sodipodi:type="arc" />
      <path
         transform="matrix(0.31216104,0,0,0.31216104,141.01229,721.40814)"
         d="m -33.137198,222.86737 c 0,4.14584 -3.360869,7.50671 -7.506711,7.50671 -4.145843,0 -7.506712,-3.36087 -7.506712,-7.50671 0,-4.14584 3.360869,-7.50671 7.506712,-7.50671 4.145842,0 7.506711,3.36087 7.506711,7.50671 z"
         sodipodi:ry="7.5067115"
         sodipodi:rx="7.5067115"
         sodipodi:cy="222.86737"
         sodipodi:cx="-40.643909"
         id="path3047-7"
         style="fill:url(#linearGradient3864-8);fill-opacity:1;stroke:none"
         sodipodi:type="arc" />
      <path
         transform="matrix(0.36415583,0,0,0.36415583,143.57593,717.11598)"
         d="m -33.137198,222.86737 c 0,4.14584 -3.360869,7.50671 -7.506711,7.50671 -4.145843,0 -7.506712,-3.36087 -7.506712,-7.50671 0,-4.14584 3.360869,-7.50671 7.506712,-7.50671 4.145842,0 7.506711,3.36087 7.506711,7.50671 z"
         sodipodi:ry="7.5067115"
         sodipodi:rx="7.5067115"
         sodipodi:cy="222.86737"
         sodipodi:cx="-40.643909"
         id="path3047-11"
         style="fill:url(#linearGradient3864-02);fill-opacity:1;stroke:none"
         sodipodi:type="arc" />
    </g>
    <g
       id="g4310"
       style="filter:url(#filter4320)"
       transform="matrix(0.84125172,0,0,0.84125172,341.11358,158.12957)">
      <path
         inkscape:connector-curvature="0"
         id="path6308-0"
         d="m 133.71678,716.42874 c -1.08407,0.0462 -2.14,0.47582 -2.81908,1.27557 -1.22469,1.44231 -1.25882,3.61091 -0.0815,5.1955 0.51951,0.69924 0.46296,0.9455 -0.51838,2.12013 -0.48069,0.57538 -0.53009,0.59229 -0.85621,0.30288 -2.14465,-1.90326 -6.11575,-2.18402 -8.85331,-0.62905 -1.88152,1.06872 -3.47697,3.30894 -3.87332,5.44012 -0.0922,0.49592 -0.10298,1.5517 -0.0233,2.3473 0.27546,2.75077 1.87232,5.06725 4.33346,6.27886 0.68173,0.33563 1.29654,0.74575 1.36294,0.91445 0.16088,0.4087 0.35774,3.75684 0.22134,3.75684 -0.0588,0 -0.35568,-0.44034 -0.664,-0.97852 -0.75181,-1.31231 -2.57803,-3.10079 -4.44995,-4.3626 -1.97782,-1.33318 -2.73107,-2.18421 -3.63452,-4.11213 -0.77532,-1.65447 -0.79236,-2.00866 -0.10484,-2.27157 0.78941,-0.30187 1.14399,-0.89872 1.22898,-2.07354 0.0764,-1.05703 0.05,-1.13237 -0.55334,-1.73571 -0.86437,-0.86438 -1.88662,-1.03618 -2.94722,-0.49509 -1.86092,0.94936 -1.67805,3.44592 0.32035,4.37423 0.70874,0.32923 0.82381,0.47445 1.08919,1.39789 0.16288,0.56678 0.53293,1.4797 0.82709,2.02695 0.29416,0.54726 0.43772,0.95738 0.31452,0.90863 -0.12319,-0.0488 -1.20222,-0.48267 -2.39389,-0.96105 l -2.16673,-0.86786 -0.0815,-1.43866 c -0.0478,-0.80542 -0.22172,-1.67803 -0.39025,-1.99199 -2.29985,-4.28455 -8.69205,-2.77839 -8.70186,2.05024 -0.005,2.63648 1.9222,4.56644 4.56062,4.56644 1.64771,0 2.90853,-0.674 3.83837,-2.05024 l 0.48344,-0.71643 1.10084,0.48927 c 1.70489,0.75327 4.90063,2.4283 6.04005,3.16855 2.58584,1.67997 4.14527,3.42306 5.40518,6.02842 0.70652,1.461 0.74554,1.63484 0.74554,3.27921 l 0,1.73571 -1.03677,-0.84455 c -0.57012,-0.46438 -1.61854,-1.13872 -2.32982,-1.49692 l -1.29304,-0.65235 0,-0.90862 c 0,-2.82235 -2.32611,-5.29909 -5.23045,-5.56244 -4.83585,-0.43851 -8.00332,4.99243 -5.24208,8.98727 2.50156,3.61918 8.05252,3.17653 9.86677,-0.78631 0.24668,-0.53882 0.54871,-0.97852 0.67565,-0.97852 0.50463,0 2.68319,1.66577 3.50055,2.67929 0.98181,1.21745 1.27558,2.12918 1.27558,3.94321 0,1.65063 -0.63801,4.70227 -1.31635,6.29635 -0.30161,0.70877 -0.54751,1.40046 -0.54751,1.54349 0,0.20976 0.49377,0.26212 2.53951,0.26212 l 2.53367,0 -0.11066,-0.43685 c -0.0604,-0.24059 -0.3373,-1.68741 -0.6174,-3.21515 -0.44857,-2.44657 -0.50311,-3.17135 -0.46597,-6.075 0.0341,-2.66876 0.11017,-3.52155 0.40772,-4.4849 0.91297,-2.95587 3.71411,-5.72259 7.23991,-7.14673 1.83498,-0.74118 1.90487,-0.71969 1.9687,0.54751 0.0485,0.963 0.1298,1.16075 0.72224,1.7532 0.56453,0.56452 0.82586,0.68073 1.67747,0.75135 1.80845,0.14999 2.92845,-0.85854 2.92975,-2.63269 9.3e-4,-1.13196 -0.44284,-1.91299 -1.34547,-2.37642 -1.18304,-0.60737 -2.45407,-0.40106 -3.31417,0.5417 -0.32422,0.35538 -0.68618,0.53131 -1.18821,0.5708 -0.39682,0.0312 -1.05724,0.1755 -1.46778,0.32034 -0.41054,0.14486 -0.78842,0.26212 -0.84456,0.26212 -0.0562,0 0.52338,-0.65002 1.29305,-1.44449 0.76967,-0.79447 1.63331,-1.84289 1.91628,-2.32982 0.54437,-0.93675 0.64952,-1.01047 0.98434,-0.67565 0.24988,0.24987 1.6836,0.0732 2.11431,-0.26211 0.91226,-0.7102 1.18925,-2.0612 0.6407,-3.12196 -0.66646,-1.28882 -2.68655,-1.48726 -3.69276,-0.36112 -0.49421,0.55312 -0.53394,0.69801 -0.46014,1.71825 0.0571,0.78985 0.17322,1.16251 0.39607,1.28722 0.25621,0.14338 0.27224,0.25296 0.099,0.57664 -0.41405,0.77366 -3.64535,3.94546 -6.03423,5.92355 -2.73133,2.26164 -3.12255,2.65314 -4.07719,4.09467 l -0.67564,1.01928 0,-3.36075 c 0,-2.36618 0.0639,-3.4305 0.22133,-3.58792 0.12301,-0.12302 0.64722,-0.22128 1.16491,-0.22134 1.65798,-1.6e-4 3.84324,-1.07138 5.09648,-2.49874 2.26083,-2.57495 2.71429,-5.92426 1.21733,-8.98144 -0.26776,-0.54684 -0.643,-1.16492 -0.83291,-1.36877 -0.47028,-0.5048 -0.44601,-0.6335 0.332,-1.80561 0.50635,-0.76286 0.75337,-0.98923 0.97852,-0.89116 1.4691,0.63993 2.95538,0.47747 4.25775,-0.46596 1.89988,-1.37627 2.05606,-4.43021 0.3087,-6.0517 -0.79419,-0.73698 -1.90976,-1.07131 -2.99382,-1.02512 z"
         style="fill:#1d5c19;fill-opacity:1" />
      <path
         transform="matrix(1.0680852,0,0,1.0680852,167.97265,493.61082)"
         d="m -33.137198,222.86737 c 0,4.14584 -3.360869,7.50671 -7.506711,7.50671 -4.145843,0 -7.506712,-3.36087 -7.506712,-7.50671 0,-4.14584 3.360869,-7.50671 7.506712,-7.50671 4.145842,0 7.506711,3.36087 7.506711,7.50671 z"
         sodipodi:ry="7.5067115"
         sodipodi:rx="7.5067115"
         sodipodi:cy="222.86737"
         sodipodi:cx="-40.643909"
         id="path3047-8"
         style="fill:url(#linearGradient4344);fill-opacity:1;stroke:none"
         sodipodi:type="arc" />
      <path
         transform="matrix(0.54218878,0,0,0.54218878,155.83948,599.48115)"
         d="m -33.137198,222.86737 c 0,4.14584 -3.360869,7.50671 -7.506711,7.50671 -4.145843,0 -7.506712,-3.36087 -7.506712,-7.50671 0,-4.14584 3.360869,-7.50671 7.506712,-7.50671 4.145842,0 7.506711,3.36087 7.506711,7.50671 z"
         sodipodi:ry="7.5067115"
         sodipodi:rx="7.5067115"
         sodipodi:cy="222.86737"
         sodipodi:cx="-40.643909"
         id="path3047-2-6"
         style="fill:url(#linearGradient4346);fill-opacity:1;stroke:none"
         sodipodi:type="arc" />
      <path
         transform="matrix(0.61780832,0,0,0.61780832,129.99279,595.21907)"
         d="m -33.137198,222.86737 c 0,4.14584 -3.360869,7.50671 -7.506711,7.50671 -4.145843,0 -7.506712,-3.36087 -7.506712,-7.50671 0,-4.14584 3.360869,-7.50671 7.506712,-7.50671 4.145842,0 7.506711,3.36087 7.506711,7.50671 z"
         sodipodi:ry="7.5067115"
         sodipodi:rx="7.5067115"
         sodipodi:cy="222.86737"
         sodipodi:cx="-40.643909"
         id="path3047-1-6"
         style="fill:url(#linearGradient4348);fill-opacity:1;stroke:none"
         sodipodi:type="arc" />
      <path
         transform="matrix(0.32415984,0,0,0.32415984,125.76733,657.24311)"
         d="m -33.137198,222.86737 c 0,4.14584 -3.360869,7.50671 -7.506711,7.50671 -4.145843,0 -7.506712,-3.36087 -7.506712,-7.50671 0,-4.14584 3.360869,-7.50671 7.506712,-7.50671 4.145842,0 7.506711,3.36087 7.506711,7.50671 z"
         sodipodi:ry="7.5067115"
         sodipodi:rx="7.5067115"
         sodipodi:cy="222.86737"
         sodipodi:cx="-40.643909"
         id="path3047-9-6"
         style="fill:url(#linearGradient4350);fill-opacity:1;stroke:none"
         sodipodi:type="arc" />
      <path
         transform="matrix(0.7681153,0,0,0.7681153,143.301,574.48277)"
         d="m -33.137198,222.86737 c 0,4.14584 -3.360869,7.50671 -7.506711,7.50671 -4.145843,0 -7.506712,-3.36087 -7.506712,-7.50671 0,-4.14584 3.360869,-7.50671 7.506712,-7.50671 4.145842,0 7.506711,3.36087 7.506711,7.50671 z"
         sodipodi:ry="7.5067115"
         sodipodi:rx="7.5067115"
         sodipodi:cy="222.86737"
         sodipodi:cx="-40.643909"
         id="path3047-0-1"
         style="fill:url(#linearGradient4352);fill-opacity:1;stroke:none"
         sodipodi:type="arc" />
      <path
         transform="matrix(0.31216104,0,0,0.31216104,149.14859,664.03051)"
         d="m -33.137198,222.86737 c 0,4.14584 -3.360869,7.50671 -7.506711,7.50671 -4.145843,0 -7.506712,-3.36087 -7.506712,-7.50671 0,-4.14584 3.360869,-7.50671 7.506712,-7.50671 4.145842,0 7.506711,3.36087 7.506711,7.50671 z"
         sodipodi:ry="7.5067115"
         sodipodi:rx="7.5067115"
         sodipodi:cy="222.86737"
         sodipodi:cx="-40.643909"
         id="path3047-7-3"
         style="fill:url(#linearGradient4354);fill-opacity:1;stroke:none"
         sodipodi:type="arc" />
      <path
         transform="matrix(0.36415583,0,0,0.36415583,151.71223,659.73835)"
         d="m -33.137198,222.86737 c 0,4.14584 -3.360869,7.50671 -7.506711,7.50671 -4.145843,0 -7.506712,-3.36087 -7.506712,-7.50671 0,-4.14584 3.360869,-7.50671 7.506712,-7.50671 4.145842,0 7.506711,3.36087 7.506711,7.50671 z"
         sodipodi:ry="7.5067115"
         sodipodi:rx="7.5067115"
         sodipodi:cy="222.86737"
         sodipodi:cx="-40.643909"
         id="path3047-11-7"
         style="fill:url(#linearGradient4356);fill-opacity:1;stroke:none"
         sodipodi:type="arc" />
    </g>
  </g>
</svg>
