<?xml version="1.0" encoding="UTF-8"?><svg xmlns="http://www.w3.org/2000/svg" xmlns:xlink="http://www.w3.org/1999/xlink" fill-opacity="1" color-rendering="auto" color-interpolation="auto" stroke="black" text-rendering="auto" stroke-linecap="square" width="2306" stroke-miterlimit="10" stroke-opacity="1" shape-rendering="auto" fill="black" stroke-dasharray="none" font-weight="normal" stroke-width="1" height="2598" font-family="'Dialog'" font-style="normal" stroke-linejoin="miter" font-size="12" stroke-dashoffset="0" image-rendering="auto">
  <!--Generated by ySVG 2.5-->
  <defs id="genericDefs"/>
  <g>
    <defs id="defs1">
      <linearGradient x1="-204.8719" gradientUnits="userSpaceOnUse" x2="-160.4331" y1="357.292" y2="357.292" id="linearGradient1" spreadMethod="reflect">
        <stop stop-opacity="1" stop-color="rgb(251,128,114)" offset="0%"/>
        <stop stop-opacity="1" stop-color="rgb(190,186,218)" offset="100%"/>
      </linearGradient>
      <linearGradient x1="219.3466" gradientUnits="userSpaceOnUse" x2="311.2894" y1="328.1731" y2="328.1731" id="linearGradient2" spreadMethod="reflect">
        <stop stop-opacity="1" stop-color="rgb(253,180,98)" offset="0%"/>
        <stop stop-opacity="1" stop-color="rgb(128,177,211)" offset="100%"/>
      </linearGradient>
      <clipPath clipPathUnits="userSpaceOnUse" id="clipPath1">
        <path d="M0 0 L2306 0 L2306 2598 L0 2598 L0 0 Z"/>
      </clipPath>
      <clipPath clipPathUnits="userSpaceOnUse" id="clipPath2">
        <path d="M-471 -854 L682 -854 L682 445 L-471 445 L-471 -854 Z"/>
      </clipPath>
    </defs>
    <g fill="url(#linearGradient1)" text-rendering="geometricPrecision" shape-rendering="geometricPrecision" transform="matrix(2,0,0,2,942,1708)" stroke="url(#linearGradient1)">
      <rect x="-227.0913" y="357.292" clip-path="url(#clipPath2)" width="66.6582" rx="4" ry="4" height="41.9375" stroke="none"/>
    </g>
    <g stroke-linecap="butt" transform="matrix(2,0,0,2,942,1708)" fill="gray" text-rendering="geometricPrecision" font-family="sans-serif" shape-rendering="geometricPrecision" stroke="gray" stroke-miterlimit="1.45">
      <text x="-220.0913" xml:space="preserve" y="375.4307" clip-path="url(#clipPath2)" stroke="none">Reaction</text>
      <text x="-212.6733" xml:space="preserve" y="389.3994" clip-path="url(#clipPath2)" stroke="none">norms</text>
    </g>
    <g fill="rgb(251,128,114)" text-rendering="geometricPrecision" shape-rendering="geometricPrecision" transform="matrix(2,0,0,2,942,1708)" stroke="rgb(251,128,114)">
      <rect x="-112.7841" y="131.3511" clip-path="url(#clipPath2)" width="116.5156" rx="4" ry="4" height="69.875" stroke="none"/>
    </g>
    <g font-size="16" stroke-linecap="butt" transform="matrix(2,0,0,2,942,1708)" fill="gray" text-rendering="geometricPrecision" font-family="sans-serif" shape-rendering="geometricPrecision" stroke="gray" stroke-miterlimit="1.45">
      <text x="-93.4833" xml:space="preserve" y="153.2026" clip-path="url(#clipPath2)" stroke="none">Genotype</text>
      <text x="-59.2607" xml:space="preserve" y="171.8276" clip-path="url(#clipPath2)" stroke="none">x</text>
      <text x="-105.7841" xml:space="preserve" y="190.4526" clip-path="url(#clipPath2)" stroke="none">Environment</text>
    </g>
    <g fill="rgb(251,128,114)" text-rendering="geometricPrecision" shape-rendering="geometricPrecision" transform="matrix(2,0,0,2,942,1708)" stroke="rgb(251,128,114)">
      <rect x="-100.9267" y="404.8033" clip-path="url(#clipPath2)" width="69.3359" rx="4" ry="4" height="30" stroke="none"/>
    </g>
    <g stroke-linecap="butt" transform="matrix(2,0,0,2,942,1708)" fill="gray" text-rendering="geometricPrecision" font-family="sans-serif" shape-rendering="geometricPrecision" stroke="gray" stroke-miterlimit="1.45">
      <text x="-93.9267" xml:space="preserve" y="423.9576" clip-path="url(#clipPath2)" stroke="none">Multi-site</text>
    </g>
    <g fill="rgb(190,186,218)" text-rendering="geometricPrecision" shape-rendering="geometricPrecision" transform="matrix(2,0,0,2,942,1708)" stroke="rgb(190,186,218)">
      <rect x="-188.7098" y="82.7337" clip-path="url(#clipPath2)" width="102.5859" rx="4" ry="4" height="51.25" stroke="none"/>
    </g>
    <g font-size="16" stroke-linecap="butt" transform="matrix(2,0,0,2,942,1708)" fill="gray" text-rendering="geometricPrecision" font-family="sans-serif" shape-rendering="geometricPrecision" stroke="gray" stroke-miterlimit="1.45">
      <text x="-170.7137" xml:space="preserve" y="104.5853" clip-path="url(#clipPath2)" stroke="none">Random</text>
      <text x="-181.7098" xml:space="preserve" y="123.2103" clip-path="url(#clipPath2)" stroke="none">Regression</text>
    </g>
    <g fill="rgb(190,186,218)" text-rendering="geometricPrecision" shape-rendering="geometricPrecision" transform="matrix(2,0,0,2,942,1708)" stroke="rgb(190,186,218)">
      <rect x="-365.2569" y="242.1881" clip-path="url(#clipPath2)" width="63.0605" rx="4" ry="4" height="41.9375" stroke="none"/>
    </g>
    <g stroke-linecap="butt" transform="matrix(2,0,0,2,942,1708)" fill="gray" text-rendering="geometricPrecision" font-family="sans-serif" shape-rendering="geometricPrecision" stroke="gray" stroke-miterlimit="1.45">
      <text x="-358.2569" xml:space="preserve" y="260.3268" clip-path="url(#clipPath2)" stroke="none">Cambial</text>
      <text x="-344.9034" xml:space="preserve" y="274.2956" clip-path="url(#clipPath2)" stroke="none">age</text>
    </g>
    <g fill="rgb(253,180,98)" text-rendering="geometricPrecision" shape-rendering="geometricPrecision" transform="matrix(2,0,0,2,942,1708)" stroke="rgb(253,180,98)">
      <rect x="10.8784" y="145.4219" clip-path="url(#clipPath2)" width="111.9141" rx="4" ry="4" height="32.625" stroke="none"/>
    </g>
    <g font-size="16" stroke-linecap="butt" transform="matrix(2,0,0,2,942,1708)" text-rendering="geometricPrecision" font-family="sans-serif" shape-rendering="geometricPrecision" stroke-miterlimit="1.45">
      <text x="17.8784" xml:space="preserve" y="167.2735" clip-path="url(#clipPath2)" stroke="none">Competition</text>
    </g>
    <g fill="rgb(253,180,98)" text-rendering="geometricPrecision" shape-rendering="geometricPrecision" transform="matrix(2,0,0,2,942,1708)" stroke="rgb(253,180,98)">
      <rect x="4.9779" y="394.2578" clip-path="url(#clipPath2)" width="171.2832" rx="4" ry="4" height="41.9375" stroke="none"/>
    </g>
    <g text-rendering="geometricPrecision" stroke-miterlimit="1.45" shape-rendering="geometricPrecision" font-family="sans-serif" transform="matrix(2,0,0,2,942,1708)" stroke-linecap="butt">
      <text x="11.9779" xml:space="preserve" y="412.3965" clip-path="url(#clipPath2)" stroke="none">Permanent Environmental</text>
      <text x="16.5482" xml:space="preserve" y="426.3652" clip-path="url(#clipPath2)" stroke="none">Competition (PEC) effect</text>
      <text x="-61.4648" font-size="30" y="10.3857" clip-path="url(#clipPath2)" stroke="none" font-weight="bold" xml:space="preserve">BreedR</text>
      <ellipse rx="68.4648" fill="none" ry="24.4609" clip-path="url(#clipPath2)" cx="0" cy="0"/>
    </g>
    <g fill="rgb(252,205,229)" text-rendering="geometricPrecision" shape-rendering="geometricPrecision" transform="matrix(2,0,0,2,942,1708)" stroke="rgb(252,205,229)">
      <rect x="-279.5885" y="-361.9795" clip-path="url(#clipPath2)" width="68.3398" rx="4" ry="4" height="30" stroke="none"/>
    </g>
    <g text-rendering="geometricPrecision" stroke-miterlimit="1.45" shape-rendering="geometricPrecision" font-family="sans-serif" transform="matrix(2,0,0,2,942,1708)" stroke-linecap="butt">
      <text x="-272.5885" xml:space="preserve" y="-342.8252" clip-path="url(#clipPath2)" stroke="none">B-splines</text>
    </g>
    <g fill="rgb(252,205,229)" text-rendering="geometricPrecision" shape-rendering="geometricPrecision" transform="matrix(2,0,0,2,942,1708)" stroke="rgb(252,205,229)">
      <rect x="-212.7831" y="-400.9054" clip-path="url(#clipPath2)" width="69.4648" rx="4" ry="4" height="30" stroke="none"/>
    </g>
    <g text-rendering="geometricPrecision" stroke-miterlimit="1.45" shape-rendering="geometricPrecision" font-family="sans-serif" transform="matrix(2,0,0,2,942,1708)" stroke-linecap="butt">
      <text x="-205.7831" xml:space="preserve" y="-381.7511" clip-path="url(#clipPath2)" stroke="none">AR1xAR1</text>
    </g>
    <g fill="rgb(252,205,229)" text-rendering="geometricPrecision" shape-rendering="geometricPrecision" transform="matrix(2,0,0,2,942,1708)" stroke="rgb(252,205,229)">
      <rect x="-325.6296" y="-316.7595" clip-path="url(#clipPath2)" width="52.707" rx="4" ry="4" height="30" stroke="none"/>
    </g>
    <g text-rendering="geometricPrecision" stroke-miterlimit="1.45" shape-rendering="geometricPrecision" font-family="sans-serif" transform="matrix(2,0,0,2,942,1708)" stroke-linecap="butt">
      <text x="-318.6296" xml:space="preserve" y="-297.6052" clip-path="url(#clipPath2)" stroke="none">Blocks</text>
    </g>
    <g fill="rgb(252,205,229)" text-rendering="geometricPrecision" shape-rendering="geometricPrecision" transform="matrix(2,0,0,2,942,1708)" stroke="rgb(252,205,229)">
      <rect x="-133.0575" y="-160.9496" clip-path="url(#clipPath2)" width="69.0859" rx="4" ry="4" height="32.625" stroke="none"/>
    </g>
    <g font-size="16" stroke-linecap="butt" transform="matrix(2,0,0,2,942,1708)" text-rendering="geometricPrecision" font-family="sans-serif" shape-rendering="geometricPrecision" stroke-miterlimit="1.45">
      <text x="-126.0575" xml:space="preserve" y="-139.0981" clip-path="url(#clipPath2)" stroke="none">Spatial</text>
    </g>
    <g fill="rgb(217,217,217)" text-rendering="geometricPrecision" shape-rendering="geometricPrecision" transform="matrix(2,0,0,2,942,1708)" stroke="rgb(217,217,217)">
      <rect x="162.5627" y="-397.2679" clip-path="url(#clipPath2)" width="46.3379" rx="4" ry="4" height="30" stroke="none"/>
    </g>
    <g text-rendering="geometricPrecision" stroke-miterlimit="1.45" shape-rendering="geometricPrecision" font-family="sans-serif" transform="matrix(2,0,0,2,942,1708)" stroke-linecap="butt">
      <text x="169.5627" xml:space="preserve" y="-378.1136" clip-path="url(#clipPath2)" stroke="none">Fixed</text>
    </g>
    <g fill="rgb(217,217,217)" text-rendering="geometricPrecision" shape-rendering="geometricPrecision" transform="matrix(2,0,0,2,942,1708)" stroke="rgb(217,217,217)">
      <rect x="55.1703" y="-432.6338" clip-path="url(#clipPath2)" width="100.9121" rx="4" ry="4" height="41.9375" stroke="none"/>
    </g>
    <g text-rendering="geometricPrecision" stroke-miterlimit="1.45" shape-rendering="geometricPrecision" font-family="sans-serif" transform="matrix(2,0,0,2,942,1708)" stroke-linecap="butt">
      <text x="80.6537" xml:space="preserve" y="-414.4951" clip-path="url(#clipPath2)" stroke="none">Random</text>
      <text x="62.1703" xml:space="preserve" y="-400.5263" clip-path="url(#clipPath2)" stroke="none">(unstructured)</text>
    </g>
    <g fill="rgb(217,217,217)" text-rendering="geometricPrecision" shape-rendering="geometricPrecision" transform="matrix(2,0,0,2,942,1708)" stroke="rgb(217,217,217)">
      <rect x="24.175" y="-182.4336" clip-path="url(#clipPath2)" width="61.7188" rx="4" ry="4" height="32.625" stroke="none"/>
    </g>
    <g font-size="16" stroke-linecap="butt" transform="matrix(2,0,0,2,942,1708)" text-rendering="geometricPrecision" font-family="sans-serif" shape-rendering="geometricPrecision" stroke-miterlimit="1.45">
      <text x="31.175" xml:space="preserve" y="-160.582" clip-path="url(#clipPath2)" stroke="none">Mixed</text>
    </g>
    <g fill="rgb(188,128,189)" text-rendering="geometricPrecision" shape-rendering="geometricPrecision" transform="matrix(2,0,0,2,942,1708)" stroke="rgb(188,128,189)">
      <rect x="249.8709" y="-329.4993" clip-path="url(#clipPath2)" width="84.8398" rx="4" ry="4" height="41.9375" stroke="none"/>
    </g>
    <g text-rendering="geometricPrecision" stroke-miterlimit="1.45" shape-rendering="geometricPrecision" font-family="sans-serif" transform="matrix(2,0,0,2,942,1708)" stroke-linecap="butt">
      <text x="256.8709" xml:space="preserve" y="-311.3606" clip-path="url(#clipPath2)" stroke="none">unobserved</text>
      <text x="260.5389" xml:space="preserve" y="-297.3918" clip-path="url(#clipPath2)" stroke="none">as missing</text>
    </g>
    <g fill="rgb(188,128,189)" text-rendering="geometricPrecision" shape-rendering="geometricPrecision" transform="matrix(2,0,0,2,942,1708)" stroke="rgb(188,128,189)">
      <rect x="73.2964" y="-143.3545" clip-path="url(#clipPath2)" width="94.1172" rx="4" ry="4" height="32.625" stroke="none"/>
    </g>
    <g font-size="16" stroke-linecap="butt" transform="matrix(2,0,0,2,942,1708)" text-rendering="geometricPrecision" font-family="sans-serif" shape-rendering="geometricPrecision" stroke-miterlimit="1.45">
      <text x="80.2964" xml:space="preserve" y="-121.5029" clip-path="url(#clipPath2)" stroke="none">Prediction</text>
    </g>
    <g fill="rgb(255,255,179)" text-rendering="geometricPrecision" shape-rendering="geometricPrecision" transform="matrix(2,0,0,2,942,1708)" stroke="rgb(255,255,179)">
      <rect x="371.5453" y="-17.5185" clip-path="url(#clipPath2)" width="106.8945" rx="4" ry="4" height="30" stroke="none"/>
    </g>
    <g text-rendering="geometricPrecision" stroke-miterlimit="1.45" shape-rendering="geometricPrecision" font-family="sans-serif" transform="matrix(2,0,0,2,942,1708)" stroke-linecap="butt">
      <text x="378.5453" xml:space="preserve" y="1.6358" clip-path="url(#clipPath2)" stroke="none">Fit components</text>
    </g>
    <g fill="rgb(255,255,179)" text-rendering="geometricPrecision" shape-rendering="geometricPrecision" transform="matrix(2,0,0,2,942,1708)" stroke="rgb(255,255,179)">
      <rect x="339.4766" y="-208.3612" clip-path="url(#clipPath2)" width="77.9785" rx="4" ry="4" height="30" stroke="none"/>
    </g>
    <g text-rendering="geometricPrecision" stroke-miterlimit="1.45" shape-rendering="geometricPrecision" font-family="sans-serif" transform="matrix(2,0,0,2,942,1708)" stroke-linecap="butt">
      <text x="346.4767" xml:space="preserve" y="-189.2069" clip-path="url(#clipPath2)" stroke="none">Phenotype</text>
    </g>
    <g fill="rgb(255,255,179)" text-rendering="geometricPrecision" shape-rendering="geometricPrecision" transform="matrix(2,0,0,2,942,1708)" stroke="rgb(255,255,179)">
      <rect x="369.5029" y="-128.2932" clip-path="url(#clipPath2)" width="83.4453" rx="4" ry="4" height="41.9375" stroke="none"/>
    </g>
    <g text-rendering="geometricPrecision" stroke-miterlimit="1.45" shape-rendering="geometricPrecision" font-family="sans-serif" transform="matrix(2,0,0,2,942,1708)" stroke-linecap="butt">
      <text x="376.7168" xml:space="preserve" y="-110.1545" clip-path="url(#clipPath2)" stroke="none">Variograms</text>
      <text x="376.5029" xml:space="preserve" y="-96.1858" clip-path="url(#clipPath2)" stroke="none">of residuals</text>
    </g>
    <g fill="rgb(255,255,179)" text-rendering="geometricPrecision" shape-rendering="geometricPrecision" transform="matrix(2,0,0,2,942,1708)" stroke="rgb(255,255,179)">
      <rect x="115.4882" y="-64.3222" clip-path="url(#clipPath2)" width="110.3594" rx="4" ry="4" height="51.25" stroke="none"/>
    </g>
    <g font-size="16" stroke-linecap="butt" transform="matrix(2,0,0,2,942,1708)" text-rendering="geometricPrecision" font-family="sans-serif" shape-rendering="geometricPrecision" stroke-miterlimit="1.45">
      <text x="122.4882" xml:space="preserve" y="-42.4706" clip-path="url(#clipPath2)" stroke="none">Plotting and</text>
      <text x="124.246" xml:space="preserve" y="-23.8456" clip-path="url(#clipPath2)" stroke="none">Diagnostics</text>
    </g>
    <g fill="rgb(179,222,105)" text-rendering="geometricPrecision" shape-rendering="geometricPrecision" transform="matrix(2,0,0,2,942,1708)" stroke="rgb(179,222,105)">
      <rect x="-443.6209" y="102.3045" clip-path="url(#clipPath2)" width="73.7832" rx="4" ry="4" height="41.9375" stroke="none"/>
    </g>
    <g text-rendering="geometricPrecision" stroke-miterlimit="1.45" shape-rendering="geometricPrecision" font-family="sans-serif" transform="matrix(2,0,0,2,942,1708)" stroke-linecap="butt">
      <text x="-436.6209" xml:space="preserve" y="120.4432" clip-path="url(#clipPath2)" stroke="none">Metagene</text>
      <text x="-433.489" xml:space="preserve" y="134.412" clip-path="url(#clipPath2)" stroke="none">interface</text>
    </g>
    <g fill="rgb(179,222,105)" text-rendering="geometricPrecision" shape-rendering="geometricPrecision" transform="matrix(2,0,0,2,942,1708)" stroke="rgb(179,222,105)">
      <rect x="-462.9117" y="13.4966" clip-path="url(#clipPath2)" width="78.623" rx="4" ry="4" height="41.9375" stroke="none"/>
    </g>
    <g text-rendering="geometricPrecision" stroke-miterlimit="1.45" shape-rendering="geometricPrecision" font-family="sans-serif" transform="matrix(2,0,0,2,942,1708)" stroke-linecap="butt">
      <text x="-455.5602" xml:space="preserve" y="31.6353" clip-path="url(#clipPath2)" stroke="none">Simulation</text>
      <text x="-455.9117" xml:space="preserve" y="45.604" clip-path="url(#clipPath2)" stroke="none">framework</text>
    </g>
    <g fill="rgb(179,222,105)" text-rendering="geometricPrecision" shape-rendering="geometricPrecision" transform="matrix(2,0,0,2,942,1708)" stroke="rgb(179,222,105)">
      <rect x="-454.5636" y="-73.4033" clip-path="url(#clipPath2)" width="65.6211" rx="4" ry="4" height="41.9375" stroke="none"/>
    </g>
    <g text-rendering="geometricPrecision" stroke-miterlimit="1.45" shape-rendering="geometricPrecision" font-family="sans-serif" transform="matrix(2,0,0,2,942,1708)" stroke-linecap="butt">
      <text x="-444.2501" xml:space="preserve" y="-55.2646" clip-path="url(#clipPath2)" stroke="none">Sample</text>
      <text x="-447.5636" xml:space="preserve" y="-41.2959" clip-path="url(#clipPath2)" stroke="none">datasets</text>
    </g>
    <g fill="rgb(179,222,105)" text-rendering="geometricPrecision" shape-rendering="geometricPrecision" transform="matrix(2,0,0,2,942,1708)" stroke="rgb(179,222,105)">
      <rect x="-401.2798" y="-256.7644" clip-path="url(#clipPath2)" width="95.3809" rx="4" ry="4" height="41.9375" stroke="none"/>
    </g>
    <g text-rendering="geometricPrecision" stroke-miterlimit="1.45" shape-rendering="geometricPrecision" font-family="sans-serif" transform="matrix(2,0,0,2,942,1708)" stroke-linecap="butt">
      <text x="-394.2798" xml:space="preserve" y="-238.6257" clip-path="url(#clipPath2)" stroke="none">Configuration</text>
      <text x="-375.688" xml:space="preserve" y="-224.657" clip-path="url(#clipPath2)" stroke="none">options</text>
    </g>
    <g fill="rgb(179,222,105)" text-rendering="geometricPrecision" shape-rendering="geometricPrecision" transform="matrix(2,0,0,2,942,1708)" stroke="rgb(179,222,105)">
      <rect x="-445.5573" y="-162.8749" clip-path="url(#clipPath2)" width="89.8965" rx="4" ry="4" height="41.9375" stroke="none"/>
    </g>
    <g text-rendering="geometricPrecision" stroke-miterlimit="1.45" shape-rendering="geometricPrecision" font-family="sans-serif" transform="matrix(2,0,0,2,942,1708)" stroke-linecap="butt">
      <text x="-424.029" xml:space="preserve" y="-144.7362" clip-path="url(#clipPath2)" stroke="none">Remote</text>
      <text x="-438.5573" xml:space="preserve" y="-130.7674" clip-path="url(#clipPath2)" stroke="none">computation</text>
    </g>
    <g fill="rgb(179,222,105)" text-rendering="geometricPrecision" shape-rendering="geometricPrecision" transform="matrix(2,0,0,2,942,1708)" stroke="rgb(179,222,105)">
      <rect x="-202.5269" y="-43.8985" clip-path="url(#clipPath2)" width="59.4297" rx="4" ry="4" height="32.625" stroke="none"/>
    </g>
    <g font-size="16" stroke-linecap="butt" transform="matrix(2,0,0,2,942,1708)" text-rendering="geometricPrecision" font-family="sans-serif" shape-rendering="geometricPrecision" stroke-miterlimit="1.45">
      <text x="-195.5269" xml:space="preserve" y="-22.047" clip-path="url(#clipPath2)" stroke="none">Other</text>
    </g>
    <g fill="url(#linearGradient2)" text-rendering="geometricPrecision" shape-rendering="geometricPrecision" transform="matrix(2,0,0,2,942,1708)" stroke="url(#linearGradient2)">
      <rect x="173.3753" y="328.1731" clip-path="url(#clipPath2)" width="137.9141" rx="4" ry="4" height="41.9375" stroke="none"/>
    </g>
    <g text-rendering="geometricPrecision" stroke-miterlimit="1.45" shape-rendering="geometricPrecision" font-family="sans-serif" transform="matrix(2,0,0,2,942,1708)" stroke-linecap="butt">
      <text x="180.3753" xml:space="preserve" y="346.3118" clip-path="url(#clipPath2)" stroke="none">additive competition</text>
      <text x="225.0735" xml:space="preserve" y="360.2805" clip-path="url(#clipPath2)" stroke="none">effect</text>
    </g>
    <g fill="rgb(128,177,211)" text-rendering="geometricPrecision" shape-rendering="geometricPrecision" transform="matrix(2,0,0,2,942,1708)" stroke="rgb(128,177,211)">
      <rect x="119.0859" y="61.0793" clip-path="url(#clipPath2)" width="75.7422" rx="4" ry="4" height="32.625" stroke="none"/>
    </g>
    <g font-size="16" stroke-linecap="butt" transform="matrix(2,0,0,2,942,1708)" text-rendering="geometricPrecision" font-family="sans-serif" shape-rendering="geometricPrecision" stroke-miterlimit="1.45">
      <text x="126.0859" xml:space="preserve" y="82.9309" clip-path="url(#clipPath2)" stroke="none">Genetic</text>
    </g>
    <g fill="rgb(128,177,211)" text-rendering="geometricPrecision" shape-rendering="geometricPrecision" transform="matrix(2,0,0,2,942,1708)" stroke="rgb(128,177,211)">
      <rect x="286.3565" y="238.2801" clip-path="url(#clipPath2)" width="100.8301" rx="4" ry="4" height="41.9375" stroke="none"/>
    </g>
    <g text-rendering="geometricPrecision" stroke-miterlimit="1.45" shape-rendering="geometricPrecision" font-family="sans-serif" transform="matrix(2,0,0,2,942,1708)" stroke-linecap="butt">
      <text x="293.3565" xml:space="preserve" y="256.4187" clip-path="url(#clipPath2)" stroke="none">additive direct</text>
      <text x="319.5127" xml:space="preserve" y="270.3875" clip-path="url(#clipPath2)" stroke="none">effect</text>
    </g>
    <g fill="rgb(128,177,211)" text-rendering="geometricPrecision" shape-rendering="geometricPrecision" transform="matrix(2,0,0,2,942,1708)" stroke="rgb(128,177,211)">
      <rect x="575.9901" y="226.1333" clip-path="url(#clipPath2)" width="55.2559" rx="4" ry="4" height="30" stroke="none"/>
    </g>
    <g text-rendering="geometricPrecision" stroke-miterlimit="1.45" shape-rendering="geometricPrecision" font-family="sans-serif" transform="matrix(2,0,0,2,942,1708)" stroke-linecap="butt">
      <text x="582.9901" xml:space="preserve" y="245.2876" clip-path="url(#clipPath2)" stroke="none">recode</text>
    </g>
    <g fill="rgb(128,177,211)" text-rendering="geometricPrecision" shape-rendering="geometricPrecision" transform="matrix(2,0,0,2,942,1708)" stroke="rgb(128,177,211)">
      <rect x="604.0157" y="171.6266" clip-path="url(#clipPath2)" width="37.2324" rx="4" ry="4" height="30" stroke="none"/>
    </g>
    <g text-rendering="geometricPrecision" stroke-miterlimit="1.45" shape-rendering="geometricPrecision" font-family="sans-serif" transform="matrix(2,0,0,2,942,1708)" stroke-linecap="butt">
      <text x="611.0157" xml:space="preserve" y="190.7809" clip-path="url(#clipPath2)" stroke="none">sort</text>
    </g>
    <g fill="rgb(128,177,211)" text-rendering="geometricPrecision" shape-rendering="geometricPrecision" transform="matrix(2,0,0,2,942,1708)" stroke="rgb(128,177,211)">
      <rect x="603.0155" y="109.1122" clip-path="url(#clipPath2)" width="70.0508" rx="4" ry="4" height="30" stroke="none"/>
    </g>
    <g text-rendering="geometricPrecision" stroke-miterlimit="1.45" shape-rendering="geometricPrecision" font-family="sans-serif" transform="matrix(2,0,0,2,942,1708)" stroke-linecap="butt">
      <text x="610.0155" xml:space="preserve" y="128.2665" clip-path="url(#clipPath2)" stroke="none">complete</text>
    </g>
    <g fill="rgb(128,177,211)" text-rendering="geometricPrecision" shape-rendering="geometricPrecision" transform="matrix(2,0,0,2,942,1708)" stroke="rgb(128,177,211)">
      <rect x="553.0567" y="283.0799" clip-path="url(#clipPath2)" width="49.1328" rx="4" ry="4" height="30" stroke="none"/>
    </g>
    <g text-rendering="geometricPrecision" stroke-miterlimit="1.45" shape-rendering="geometricPrecision" font-family="sans-serif" transform="matrix(2,0,0,2,942,1708)" stroke-linecap="butt">
      <text x="560.0566" xml:space="preserve" y="302.2342" clip-path="url(#clipPath2)" stroke="none">check</text>
    </g>
    <g fill="rgb(128,177,211)" text-rendering="geometricPrecision" shape-rendering="geometricPrecision" transform="matrix(2,0,0,2,942,1708)" stroke="rgb(128,177,211)">
      <rect x="368.8328" y="115.5804" clip-path="url(#clipPath2)" width="67.2676" rx="4" ry="4" height="41.9375" stroke="none"/>
    </g>
    <g text-rendering="geometricPrecision" stroke-miterlimit="1.45" shape-rendering="geometricPrecision" font-family="sans-serif" transform="matrix(2,0,0,2,942,1708)" stroke-linecap="butt">
      <text x="375.8328" xml:space="preserve" y="133.7191" clip-path="url(#clipPath2)" stroke="none">pedigree</text>
      <text x="376.4304" xml:space="preserve" y="147.6878" clip-path="url(#clipPath2)" stroke="none">handling</text>
    </g>
    <g fill="rgb(141,211,199)" text-rendering="geometricPrecision" shape-rendering="geometricPrecision" transform="matrix(2,0,0,2,942,1708)" stroke="rgb(141,211,199)">
      <rect x="-64.0862" y="-190.2431" clip-path="url(#clipPath2)" width="89.5391" rx="4" ry="4" height="32.625" stroke="none"/>
    </g>
    <g font-size="16" stroke-linecap="butt" transform="matrix(2,0,0,2,942,1708)" text-rendering="geometricPrecision" font-family="sans-serif" shape-rendering="geometricPrecision" stroke-miterlimit="1.45">
      <text x="-57.0862" xml:space="preserve" y="-168.3916" clip-path="url(#clipPath2)" stroke="none">Inference</text>
    </g>
    <g fill="rgb(141,211,199)" text-rendering="geometricPrecision" shape-rendering="geometricPrecision" transform="matrix(2,0,0,2,942,1708)" stroke="rgb(141,211,199)">
      <rect x="-36.3056" y="-439.9717" clip-path="url(#clipPath2)" width="82.4258" rx="4" ry="4" height="30" stroke="none"/>
    </g>
    <g text-rendering="geometricPrecision" stroke-miterlimit="1.45" shape-rendering="geometricPrecision" font-family="sans-serif" transform="matrix(2,0,0,2,942,1708)" stroke-linecap="butt">
      <text x="-29.3056" xml:space="preserve" y="-420.8174" clip-path="url(#clipPath2)" stroke="none">Frequentist</text>
    </g>
    <g fill="rgb(141,211,199)" text-rendering="geometricPrecision" shape-rendering="geometricPrecision" transform="matrix(2,0,0,2,942,1708)" stroke="rgb(141,211,199)">
      <rect x="-114.8787" y="-658.624" clip-path="url(#clipPath2)" width="48.1191" rx="4" ry="4" height="30" stroke="none"/>
    </g>
    <g stroke-linecap="butt" transform="matrix(2,0,0,2,942,1708)" fill="gray" text-rendering="geometricPrecision" font-family="sans-serif" shape-rendering="geometricPrecision" stroke="gray" stroke-miterlimit="1.45">
      <text x="-107.8787" xml:space="preserve" y="-639.4697" clip-path="url(#clipPath2)" stroke="none">Gibbs</text>
    </g>
    <g fill="rgb(141,211,199)" text-rendering="geometricPrecision" shape-rendering="geometricPrecision" transform="matrix(2,0,0,2,942,1708)" stroke="rgb(141,211,199)">
      <rect x="-45.6644" y="-845.9138" clip-path="url(#clipPath2)" width="110.3809" rx="4" ry="4" height="41.9375" stroke="none"/>
    </g>
    <g text-rendering="geometricPrecision" stroke-miterlimit="1.45" shape-rendering="geometricPrecision" font-family="sans-serif" transform="matrix(2,0,0,2,942,1708)" stroke-linecap="butt">
      <text x="-23.9164" xml:space="preserve" y="-827.7751" clip-path="url(#clipPath2)" stroke="none">(ai)remlf90</text>
      <text x="-38.6644" xml:space="preserve" y="-813.8063" clip-path="url(#clipPath2)" stroke="none">(I. Misztal et al.)</text>
    </g>
    <g fill="rgb(141,211,199)" text-rendering="geometricPrecision" shape-rendering="geometricPrecision" transform="matrix(2,0,0,2,942,1708)" stroke="rgb(141,211,199)">
      <rect x="-15.9742" y="-664.9567" clip-path="url(#clipPath2)" width="46.959" rx="4" ry="4" height="30" stroke="none"/>
    </g>
    <g text-rendering="geometricPrecision" stroke-miterlimit="1.45" shape-rendering="geometricPrecision" font-family="sans-serif" transform="matrix(2,0,0,2,942,1708)" stroke-linecap="butt">
      <text x="-8.9742" xml:space="preserve" y="-645.8024" clip-path="url(#clipPath2)" stroke="none">REML</text>
    </g>
    <g fill="rgb(141,211,199)" text-rendering="geometricPrecision" shape-rendering="geometricPrecision" transform="matrix(2,0,0,2,942,1708)" stroke="rgb(141,211,199)">
      <rect x="-234.6564" y="-811.7746" clip-path="url(#clipPath2)" width="41.4102" rx="4" ry="4" height="30" stroke="none"/>
    </g>
    <g stroke-linecap="butt" transform="matrix(2,0,0,2,942,1708)" fill="gray" text-rendering="geometricPrecision" font-family="sans-serif" shape-rendering="geometricPrecision" stroke="gray" stroke-miterlimit="1.45">
      <text x="-227.6564" xml:space="preserve" y="-792.6204" clip-path="url(#clipPath2)" stroke="none">INLA</text>
    </g>
    <g fill="rgb(141,211,199)" text-rendering="geometricPrecision" shape-rendering="geometricPrecision" transform="matrix(2,0,0,2,942,1708)" stroke="rgb(141,211,199)">
      <rect x="-214.2103" y="-642.7618" clip-path="url(#clipPath2)" width="91.2852" rx="4" ry="4" height="30" stroke="none"/>
    </g>
    <g stroke-linecap="butt" transform="matrix(2,0,0,2,942,1708)" fill="gray" text-rendering="geometricPrecision" font-family="sans-serif" shape-rendering="geometricPrecision" stroke="gray" stroke-miterlimit="1.45">
      <text x="-207.2103" xml:space="preserve" y="-623.6075" clip-path="url(#clipPath2)" stroke="none">Approximate</text>
    </g>
    <g fill="rgb(141,211,199)" text-rendering="geometricPrecision" shape-rendering="geometricPrecision" transform="matrix(2,0,0,2,942,1708)" stroke="rgb(141,211,199)">
      <rect x="-126.1662" y="-429.9542" clip-path="url(#clipPath2)" width="68.6152" rx="4" ry="4" height="30" stroke="none"/>
    </g>
    <g stroke-linecap="butt" transform="matrix(2,0,0,2,942,1708)" fill="gray" text-rendering="geometricPrecision" font-family="sans-serif" shape-rendering="geometricPrecision" stroke="gray" stroke-miterlimit="1.45">
      <text x="-119.1662" xml:space="preserve" y="-410.7999" clip-path="url(#clipPath2)" stroke="none">Bayesian</text>
      <path fill="none" d="M-71.4404 201.226 L-72.8566 204.0499 L-82.773 222.6093 L-93.1847 240.9413 L-104.0876 259.0363 L-115.477 276.8846 L-127.3484 294.4765 L-139.6971 311.8026 L-152.518 328.8533 L-165.806 345.6194 L-170.4279 351.1564" clip-path="url(#clipPath2)" stroke="black"/>
      <path fill="black" d="M-175.5545 357.298 L-164.0262 351.2897 L-169.7871 350.3887 L-171.7031 344.8816 Z" clip-path="url(#clipPath2)" stroke="none"/>
      <path fill="none" d="M-60.924 201.2551 L-61.9844 207.6111 L-64.8982 228.4611 L-67.265 249.4224 L-69.0824 270.4841 L-70.3481 291.6353 L-71.0602 312.865 L-71.2168 334.162 L-70.8163 355.5156 L-69.8572 376.9143 L-68.3384 398.3473 L-67.7088 404.8427" clip-path="url(#clipPath2)" stroke="black"/>
      <path fill="black" d="M-67.7088 404.8427 L-63.8898 392.4164 L-68.5771 395.8847 L-73.8432 393.3811 Z" clip-path="url(#clipPath2)" stroke="none"/>
      <path fill="none" d="M-153.5366 133.9711 L-154.866 136.2189 L-162.6033 150.9592 L-169.6524 166.2056 L-175.992 181.9316 L-181.6015 198.1097 L-186.4614 214.7121 L-190.5534 231.7098 L-193.8598 249.0733 L-196.3642 266.7727 L-198.0511 284.7771 L-198.9064 303.0553 L-198.9167 321.5753 L-198.0699 340.3049 L-197.2485 349.3606" clip-path="url(#clipPath2)" stroke="black"/>
      <path fill="black" d="M-196.5258 357.3279 L-192.6302 344.9252 L-197.3388 348.3647 L-202.5894 345.8286 Z" clip-path="url(#clipPath2)" stroke="none"/>
      <path fill="none" d="M-169.9354 134.0009 L-300.8726 237.2502" clip-path="url(#clipPath2)" stroke="black"/>
      <path fill="black" d="M-307.1545 242.2037 L-294.6357 238.6996 L-300.0874 236.631 L-300.8276 230.8472 Z" clip-path="url(#clipPath2)" stroke="none"/>
      <path fill="none" d="M71.0888 178.045 L71.7292 180.5007 L76.123 199.427 L80.0135 218.503 L83.3974 237.7186 L86.2718 257.0634 L88.6337 276.5272 L90.4805 296.0996 L91.8098 315.7701 L92.6192 335.5283 L92.9067 355.3636 L92.6704 375.2655 L92.2509 386.2547" clip-path="url(#clipPath2)" stroke="black"/>
      <path fill="black" d="M91.9457 394.2488 L97.3998 382.4483 L92.289 385.2554 L87.4071 382.0668 Z" clip-path="url(#clipPath2)" stroke="none"/>
      <path fill="none" d="M9.9999 24.1986 L57.0503 138.0555" clip-path="url(#clipPath2)" stroke="black"/>
      <path fill="black" d="M60.1057 145.449 L60.1437 132.4491 L56.6684 137.1313 L50.9017 136.2683 Z" clip-path="url(#clipPath2)" stroke="none"/>
      <path fill="none" d="M-28.2556 22.2806 L-98.6477 77.7877" clip-path="url(#clipPath2)" stroke="black"/>
      <path fill="black" d="M-104.9296 82.7412 L-92.4108 79.2371 L-97.8625 77.1685 L-98.6027 71.3847 Z" clip-path="url(#clipPath2)" stroke="none"/>
      <path fill="none" d="M-7.9663 24.2948 L-40.5869 123.7777" clip-path="url(#clipPath2)" stroke="black"/>
      <path fill="black" d="M-43.0795 131.3795 L-34.5895 121.5347 L-40.2753 122.8275 L-44.0917 118.4189 Z" clip-path="url(#clipPath2)" stroke="none"/>
      <path fill="none" d="M-16.1883 -23.7673 L-82.8961 -121.7065" clip-path="url(#clipPath2)" stroke="black"/>
      <path fill="black" d="M-87.3996 -128.3185 L-84.7768 -115.5858 L-82.3332 -120.88 L-76.5119 -121.2152 Z" clip-path="url(#clipPath2)" stroke="none"/>
      <path fill="none" d="M-113.518 -160.9686 L-125.0935 -172.9666 L-139.0085 -186.6075 L-153.3308 -199.8872 L-168.0529 -212.7971 L-183.1673 -225.3286 L-198.6661 -237.4731 L-214.5414 -249.2224 L-230.7851 -260.5682 L-247.3889 -271.5027 L-264.3444 -282.0178 L-267.3331 -283.7607" clip-path="url(#clipPath2)" stroke="black"/>
      <path fill="black" d="M-274.2438 -287.7909 L-266.3966 -277.4265 L-266.4693 -283.257 L-261.3589 -286.0648 Z" clip-path="url(#clipPath2)" stroke="none"/>
      <path fill="none" d="M-106.7937 -160.985 L-107.9976 -163.3622 L-116.9803 -182.3734 L-125.4565 -201.6604 L-133.4205 -221.2128 L-140.8665 -241.02 L-147.7891 -261.0716 L-154.183 -281.3568 L-160.043 -301.8648 L-165.3644 -322.5847 L-170.1425 -343.5054 L-174.3727 -364.6161 L-175.4574 -370.8947" clip-path="url(#clipPath2)" stroke="black"/>
      <path fill="black" d="M-175.4574 -370.8947 L-178.3415 -358.2187 L-173.9252 -362.0261 L-168.4875 -359.9211 Z" clip-path="url(#clipPath2)" stroke="none"/>
      <path fill="none" d="M-109.9644 -160.9529 L-111.5709 -163.2421 L-231.7667 -328.7971 L-234.1398 -331.9577" clip-path="url(#clipPath2)" stroke="black"/>
      <path fill="black" d="M-234.1398 -331.9577 L-230.9331 -319.3594 L-228.7359 -324.7606 L-222.9363 -325.3637 Z" clip-path="url(#clipPath2)" stroke="none"/>
      <path fill="none" d="M8.0475 -24.2914 L47.1155 -142.218" clip-path="url(#clipPath2)" stroke="black"/>
      <path fill="black" d="M49.6313 -149.8121 L41.1112 -139.9933 L46.801 -141.2687 L50.6038 -136.8485 Z" clip-path="url(#clipPath2)" stroke="none"/>
      <path fill="none" d="M59.4791 -182.4618 L61.0074 -188.0802 L72.135 -232.2368 L82.1663 -276.6942 L91.0954 -321.4317 L98.9171 -366.4289 L102.4111 -389.0184 L102.6434 -390.655" clip-path="url(#clipPath2)" stroke="black"/>
      <path fill="black" d="M102.6434 -390.655 L96.0063 -379.477 L101.3783 -381.7443 L105.907 -378.0713 Z" clip-path="url(#clipPath2)" stroke="none"/>
      <path fill="none" d="M62.3733 -182.411 L63.6328 -185.2068 L72.6582 -204.1206 L82.1077 -222.8555 L91.9786 -241.4043 L102.2677 -259.7602 L112.972 -277.916 L124.0883 -295.8651 L135.6133 -313.6003 L147.5437 -331.1149 L159.876 -348.4022 L172.6065 -365.4554 L174.0164 -367.2615" clip-path="url(#clipPath2)" stroke="black"/>
      <path fill="black" d="M174.0164 -367.2615 L162.6909 -360.8794 L168.4782 -360.1673 L170.5733 -354.7257 Z" clip-path="url(#clipPath2)" stroke="none"/>
      <path fill="none" d="M21.9502 -23.1697 L99.4053 -104.9282" clip-path="url(#clipPath2)" stroke="black"/>
      <path fill="black" d="M104.9072 -110.7359 L93.0245 -105.4631 L98.7175 -104.2023 L100.2841 -98.5857 Z" clip-path="url(#clipPath2)" stroke="none"/>
      <path fill="none" d="M135.8234 -143.3697 L266.9057 -281.735" clip-path="url(#clipPath2)" stroke="black"/>
      <path fill="black" d="M272.4077 -287.5427 L260.525 -282.27 L266.218 -281.0091 L267.7845 -275.3925 Z" clip-path="url(#clipPath2)" stroke="none"/>
      <path fill="none" d="M57.8065 -13.107 L107.6751 -24.4142" clip-path="url(#clipPath2)" stroke="black"/>
      <path fill="black" d="M115.4771 -26.1832 L102.6685 -28.4059 L106.6999 -24.1931 L104.8798 -18.6535 Z" clip-path="url(#clipPath2)" stroke="none"/>
      <path fill="none" d="M225.8303 -53.3203 L302.3949 -74.1934 L361.8319 -92.0972" clip-path="url(#clipPath2)" stroke="black"/>
      <path fill="black" d="M369.4919 -94.4045 L356.5598 -95.731 L360.8744 -91.8088 L359.444 -86.156 Z" clip-path="url(#clipPath2)" stroke="none"/>
      <path fill="none" d="M223.0878 -64.1496 L223.597 -64.4211 L240.6938 -74.3756 L257.4843 -85.0075 L273.9486 -96.3087 L290.0676 -108.2704 L305.8218 -120.8834 L321.1924 -134.1381 L336.1604 -148.0241 L350.7075 -162.5308 L364.8153 -177.6471 L365.4285 -178.353" clip-path="url(#clipPath2)" stroke="black"/>
      <path fill="black" d="M365.4285 -178.353 L353.7841 -172.5729 L359.5262 -171.5586 L361.3334 -166.0148 Z" clip-path="url(#clipPath2)" stroke="none"/>
      <path fill="none" d="M225.8189 -40.0626 L229.2236 -40.0283 L248.8566 -39.1873 L268.5201 -37.701 L288.1981 -35.5684 L307.8743 -32.7885 L327.5328 -29.3611 L347.1573 -25.2858 L366.7316 -20.5632 L370.1061 -19.6344" clip-path="url(#clipPath2)" stroke="black"/>
      <path fill="black" d="M377.8192 -17.5114 L367.5764 -25.5166 L369.1419 -19.8998 L364.9226 -15.8752 Z" clip-path="url(#clipPath2)" stroke="none"/>
      <path fill="none" d="M-62.5093 -9.9784 L-135.209 -21.5834" clip-path="url(#clipPath2)" stroke="black"/>
      <path fill="black" d="M-143.1089 -22.8445 L-132.0471 -16.0154 L-134.2215 -21.4258 L-130.4708 -25.8904 Z" clip-path="url(#clipPath2)" stroke="none"/>
      <path fill="none" d="M-202.5388 -37.0919 L-209.7672 -39.5416 L-228.0388 -46.3034 L-246.1584 -53.5841 L-264.1151 -61.3809 L-281.898 -69.6904 L-299.4962 -78.5094 L-316.8989 -87.8343 L-334.0956 -97.6611 L-351.0754 -107.9861 L-367.8279 -118.8048 L-370.9567 -120.9472" clip-path="url(#clipPath2)" stroke="black"/>
      <path fill="black" d="M-370.9567 -120.9472 L-363.8803 -110.0419 L-363.5308 -115.8624 L-358.2305 -118.293 Z" clip-path="url(#clipPath2)" stroke="none"/>
      <path fill="none" d="M-200.9906 -43.03 L-201.6314 -43.4033 L-215.574 -52.5011 L-229.1624 -62.3766 L-242.3649 -73.0171 L-255.1504 -84.4087 L-267.4881 -96.5362 L-279.3478 -109.3837 L-290.6998 -122.934 L-301.5151 -137.1686 L-311.7651 -152.0683 L-321.4221 -167.6128 L-330.4591 -183.7806 L-338.8495 -200.5494 L-341.9439 -207.5036" clip-path="url(#clipPath2)" stroke="black"/>
      <path fill="black" d="M-345.1961 -214.8127 L-344.886 -201.8164 L-341.5374 -206.59 L-335.7496 -205.8817 Z" clip-path="url(#clipPath2)" stroke="none"/>
      <path fill="none" d="M-202.5521 -31.3645 L-308.3424 -43.2697 L-380.9277 -49.365" clip-path="url(#clipPath2)" stroke="black"/>
      <path fill="black" d="M-388.8997 -50.0345 L-377.3602 -44.0479 L-379.9312 -49.2814 L-376.5234 -54.0128 Z" clip-path="url(#clipPath2)" stroke="none"/>
      <path fill="none" d="M-202.5316 -26.4442 L-211.8891 -25.8616 L-231.4584 -23.932 L-251.0219 -21.2895 L-270.5601 -17.9339 L-290.0534 -13.8652 L-309.4821 -9.0842 L-328.8265 -3.5919 L-348.0671 2.61 L-367.1843 9.5195 L-376.9923 13.4555" clip-path="url(#clipPath2)" stroke="black"/>
      <path fill="black" d="M-384.4168 16.435 L-371.4179 16.606 L-376.0643 13.0831 L-375.1423 7.3255 Z" clip-path="url(#clipPath2)" stroke="none"/>
      <path fill="none" d="M-202.4998 -21.5698 L-205.1838 -20.9441 L-221.277 -16.279 L-237.258 -10.7195 L-253.089 -4.2684 L-268.7325 3.0697 L-284.1508 11.2892 L-299.3068 20.3827 L-314.1632 30.3417 L-328.6833 41.1562 L-342.8307 52.8147 L-356.5692 65.3045 L-369.8632 78.6115 L-382.6775 92.72 L-385.487 96.1218" clip-path="url(#clipPath2)" stroke="black"/>
      <path fill="black" d="M-390.5812 102.2901 L-379.0846 96.2215 L-384.8502 95.3507 L-386.795 89.8537 Z" clip-path="url(#clipPath2)" stroke="none"/>
      <path fill="none" d="M76.9959 178.031 L77.1368 178.2569 L88.0004 194.4782 L99.4192 210.3843 L111.3855 225.9613 L123.8916 241.1955 L136.9293 256.0734 L150.4901 270.5816 L164.5654 284.7069 L179.1461 298.4363 L194.2229 311.757 L209.7861 324.6564 L214.3287 328.1867" clip-path="url(#clipPath2)" stroke="black"/>
      <path fill="black" d="M214.3287 328.1867 L207.9219 316.8751 L207.2224 322.6639 L201.7854 324.7709 Z" clip-path="url(#clipPath2)" stroke="none"/>
      <path fill="none" d="M40.1717 19.8077 L116.6794 57.5318" clip-path="url(#clipPath2)" stroke="black"/>
      <path fill="black" d="M123.8545 61.0698 L115.303 51.2784 L115.7825 57.0896 L110.8806 60.2474 Z" clip-path="url(#clipPath2)" stroke="none"/>
      <path fill="none" d="M171.5237 93.7203 L177.6339 101.1454 L187.1025 114.0403 L195.9499 127.5816 L204.1462 141.7434 L211.6625 156.4985 L218.471 171.8188 L224.5449 187.6749 L229.8587 204.0363 L234.3878 220.8716 L238.1091 238.1481 L241.0005 255.8326 L243.0414 273.8906 L244.2124 292.287 L244.4954 310.9856 L244.1929 320.2132" clip-path="url(#clipPath2)" stroke="black"/>
      <path fill="black" d="M243.9308 328.2089 L249.3213 316.3792 L244.2257 319.2137 L239.3267 316.0515 Z" clip-path="url(#clipPath2)" stroke="none"/>
      <path fill="none" d="M179.799 93.7034 L188.4897 100.1872 L203.7839 112.3292 L218.7481 124.9581 L233.3711 138.0665 L247.6417 151.6469 L261.5491 165.6917 L275.0824 180.1928 L288.231 195.142 L300.9845 210.531 L313.3324 226.351 L317.3821 231.8634" clip-path="url(#clipPath2)" stroke="black"/>
      <path fill="black" d="M322.1185 238.3107 L319.0435 225.6796 L316.7901 231.0576 L310.9844 231.6001 Z" clip-path="url(#clipPath2)" stroke="none"/>
      <path fill="none" d="M194.6334 90.9493 L196.3733 91.5531 L216.338 98.0005 L236.4647 104.0219 L256.7463 109.6145 L277.176 114.7758 L297.7466 119.5031 L318.4512 123.7941 L339.2826 127.6463 L360.2337 131.0577 L360.9103 131.153" clip-path="url(#clipPath2)" stroke="black"/>
      <path fill="black" d="M368.832 132.2693 L357.6471 125.6438 L359.92 131.0135 L356.2517 135.5459 Z" clip-path="url(#clipPath2)" stroke="none"/>
      <path fill="none" d="M436.0958 152.3875 L476.7217 172.0496 L531.5996 200.5802 L571.217 222.6403" clip-path="url(#clipPath2)" stroke="black"/>
      <path fill="black" d="M578.2065 226.5323 L570.1547 216.3259 L570.3433 222.1538 L565.2898 225.0628 Z" clip-path="url(#clipPath2)" stroke="none"/>
      <path fill="none" d="M436.067 145.1143 L512.0176 163.5365 L600.429 182.3218 L604.0283 183.0196" clip-path="url(#clipPath2)" stroke="black"/>
      <path fill="black" d="M604.0283 183.0196 L593.1994 175.827 L595.1929 181.3066 L591.296 185.6442 Z" clip-path="url(#clipPath2)" stroke="none"/>
      <path fill="none" d="M436.092 138.4788 L441.21 138.7083 L460.6912 139.1589 L480.2361 139.188 L499.8376 138.7945 L519.4888 137.9769 L539.1825 136.7343 L558.9117 135.0656 L578.6693 132.9698 L598.4481 130.446 L603.0483 129.7599" clip-path="url(#clipPath2)" stroke="black"/>
      <path fill="black" d="M603.0483 129.7599 L590.442 126.5849 L594.1468 131.0876 L591.9173 136.4755 Z" clip-path="url(#clipPath2)" stroke="none"/>
      <path fill="none" d="M431.598 157.5241 L431.7401 157.6288 L446.09 168.699 L460.2404 180.1189 L474.1852 191.8852 L487.9184 203.9948 L501.4339 216.4442 L514.7256 229.2301 L527.7878 242.3489 L540.6144 255.797 L553.1996 269.5708 L559.7626 277.0685" clip-path="url(#clipPath2)" stroke="black"/>
      <path fill="black" d="M565.0317 283.0882 L560.8903 270.7655 L559.1039 276.3161 L553.3657 277.3519 Z" clip-path="url(#clipPath2)" stroke="none"/>
      <path fill="none" d="M-2.7145 -24.4417 L-16.6218 -149.6657" clip-path="url(#clipPath2)" stroke="black"/>
      <path fill="black" d="M-17.5048 -157.6168 L-21.1497 -145.1382 L-16.5114 -148.6718 L-11.2108 -146.242 Z" clip-path="url(#clipPath2)" stroke="none"/>
      <path fill="none" d="M-19.5639 -190.2304 L-19.6339 -194.8466 L-19.5271 -215.7849 L-18.9958 -236.7391 L-18.0398 -257.7027 L-16.6589 -278.6692 L-14.8528 -299.6321 L-12.6216 -320.585 L-9.9653 -341.5213 L-6.884 -362.4346 L-3.3779 -383.3185 L0.5527 -404.1663 L1.7689 -409.9772" clip-path="url(#clipPath2)" stroke="black"/>
      <path fill="black" d="M1.7689 -409.9772 L-5.5834 -399.256 L-0.0748 -401.1681 L4.2045 -397.2074 Z" clip-path="url(#clipPath2)" stroke="none"/>
      <path fill="none" d="M-84.7624 -658.6083 L-84.529 -659.1857 L-77.8596 -674.689 L-70.8114 -690.1266 L-63.385 -705.4916 L-55.5813 -720.7768 L-47.4009 -735.9752 L-38.845 -751.0795 L-29.9145 -766.0828 L-20.6108 -780.9781 L-10.9352 -795.7582 L-9.8265 -797.3758" clip-path="url(#clipPath2)" stroke="black"/>
      <path fill="black" d="M-5.3038 -803.9747 L-16.2122 -796.903 L-10.3919 -796.5509 L-7.9636 -791.2496 Z" clip-path="url(#clipPath2)" stroke="none"/>
      <path fill="none" d="M5.0808 -439.9945 L7.2398 -626.9636" clip-path="url(#clipPath2)" stroke="black"/>
      <path fill="black" d="M7.3322 -634.963 L2.194 -623.0215 L7.2283 -625.9636 L12.1933 -622.9061 Z" clip-path="url(#clipPath2)" stroke="none"/>
      <path fill="none" d="M7.6785 -664.952 L9.1914 -795.9699" clip-path="url(#clipPath2)" stroke="black"/>
      <path fill="black" d="M9.2838 -803.9694 L4.1456 -792.0279 L9.1799 -794.97 L14.1449 -791.9124 Z" clip-path="url(#clipPath2)" stroke="none"/>
      <path fill="none" d="M-172.5898 -642.7403 L-207.8475 -774.0435" clip-path="url(#clipPath2)" stroke="black"/>
      <path fill="black" d="M-209.9222 -781.7698 L-211.6392 -768.8837 L-207.5882 -773.0778 L-201.9813 -771.4771 Z" clip-path="url(#clipPath2)" stroke="none"/>
      <path fill="none" d="M-22.5268 -190.2306 L-23.3549 -194.4357 L-27.7611 -214.8808 L-32.5344 -235.2611 L-37.6739 -255.5715 L-43.1789 -275.8072 L-49.0483 -295.9633 L-55.2812 -316.0348 L-61.8765 -336.017 L-68.8331 -355.9048 L-76.1498 -375.6936 L-83.8254 -395.3783 L-85.6925 -399.9282" clip-path="url(#clipPath2)" stroke="black"/>
      <path fill="black" d="M-85.6925 -399.9282 L-85.7625 -386.9283 L-82.2757 -391.602 L-76.5111 -390.7247 Z" clip-path="url(#clipPath2)" stroke="none"/>
      <path fill="none" d="M-92.8402 -429.9908 L-93.206 -435.5943 L-95.0389 -476.9876 L-95.7197 -518.5116 L-95.2451 -560.1419 L-93.6123 -601.8542 L-92.3609 -622.7335 L-91.9243 -628.6497" clip-path="url(#clipPath2)" stroke="black"/>
      <path fill="black" d="M-91.9243 -628.6497 L-97.7939 -617.0503 L-92.5867 -619.6741 L-87.8211 -616.3143 Z" clip-path="url(#clipPath2)" stroke="none"/>
      <path fill="none" d="M-96.6038 -429.9689 L-98.664 -436.4879 L-120.2385 -500.7671 L-143.543 -564.5367 L-160.0357 -606.7494 L-162.4853 -612.7823" clip-path="url(#clipPath2)" stroke="black"/>
      <path fill="black" d="M-162.4853 -612.7823 L-162.6034 -599.7828 L-159.0994 -604.4435 L-153.3381 -603.545 Z" clip-path="url(#clipPath2)" stroke="none"/>
    </g>
  </g>
</svg>
